<svg width="42" height="42" viewBox="0 0 42 42" fill="none" xmlns="http://www.w3.org/2000/svg">
<ellipse cx="21" cy="20.7894" rx="21" ry="20.4477" fill="#F4F5F9"/>
<path d="M7.56258 25.4245V16.8581H8.55867V24.5222H12.338V25.4245H7.56258ZM19.1934 22.2077C19.1934 23.2546 18.9298 24.0729 18.4024 24.6628C17.8751 25.2487 17.1466 25.5417 16.2169 25.5417C15.6427 25.5417 15.1329 25.4069 14.6876 25.1374C14.2423 24.8679 13.8985 24.4811 13.6563 23.9772C13.4141 23.4733 13.293 22.8835 13.293 22.2077C13.293 21.1608 13.5548 20.3464 14.0782 19.7643C14.6016 19.1784 15.3282 18.8854 16.2579 18.8854C17.1563 18.8854 17.8692 19.1843 18.3966 19.7819C18.9278 20.3796 19.1934 21.1882 19.1934 22.2077ZM14.3009 22.2077C14.3009 23.028 14.4649 23.653 14.793 24.0827C15.1212 24.5124 15.6036 24.7272 16.2403 24.7272C16.877 24.7272 17.3595 24.5143 17.6876 24.0886C18.0196 23.6589 18.1856 23.0319 18.1856 22.2077C18.1856 21.3913 18.0196 20.7722 17.6876 20.3503C17.3595 19.9245 16.8731 19.7116 16.2286 19.7116C15.5919 19.7116 15.1114 19.9206 14.7872 20.3386C14.463 20.7565 14.3009 21.3796 14.3009 22.2077ZM26.1602 19.0026V19.6179L24.9708 19.7585C25.0802 19.8952 25.1778 20.0749 25.2637 20.2975C25.3497 20.5163 25.3927 20.7643 25.3927 21.0417C25.3927 21.6706 25.1778 22.1725 24.7481 22.5475C24.3184 22.9225 23.7286 23.11 22.9786 23.11C22.7872 23.11 22.6075 23.0944 22.4395 23.0632C22.0255 23.2819 21.8184 23.5573 21.8184 23.8893C21.8184 24.0651 21.8907 24.196 22.0352 24.2819C22.1798 24.364 22.4278 24.405 22.7794 24.405H23.9161C24.6114 24.405 25.1446 24.5515 25.5157 24.8444C25.8907 25.1374 26.0782 25.5632 26.0782 26.1218C26.0782 26.8327 25.793 27.3737 25.2227 27.7448C24.6524 28.1198 23.8204 28.3073 22.7266 28.3073C21.8868 28.3073 21.2384 28.1511 20.7813 27.8386C20.3282 27.5261 20.1016 27.0847 20.1016 26.5143C20.1016 26.1237 20.2266 25.7858 20.4766 25.5007C20.7266 25.2155 21.0782 25.0222 21.5313 24.9206C21.3673 24.8464 21.2286 24.7311 21.1153 24.5749C21.0059 24.4186 20.9512 24.237 20.9512 24.03C20.9512 23.7956 21.0137 23.5905 21.1387 23.4147C21.2637 23.239 21.461 23.069 21.7305 22.905C21.3985 22.7682 21.127 22.5358 20.9161 22.2077C20.7091 21.8796 20.6055 21.5046 20.6055 21.0827C20.6055 20.3796 20.8165 19.8386 21.2384 19.4597C21.6602 19.0768 22.2579 18.8854 23.0313 18.8854C23.3673 18.8854 23.67 18.9245 23.9395 19.0026H26.1602ZM21.0391 26.5026C21.0391 26.8503 21.1856 27.114 21.4786 27.2936C21.7716 27.4733 22.1915 27.5632 22.7384 27.5632C23.5548 27.5632 24.1583 27.4401 24.5489 27.194C24.9434 26.9518 25.1407 26.6218 25.1407 26.2038C25.1407 25.8561 25.0333 25.614 24.8184 25.4772C24.6036 25.3444 24.1993 25.278 23.6055 25.278H22.4395C21.9981 25.278 21.6544 25.3835 21.4083 25.5944C21.1622 25.8054 21.0391 26.1081 21.0391 26.5026ZM21.5665 21.0593C21.5665 21.5085 21.6934 21.8483 21.9473 22.0788C22.2012 22.3093 22.5548 22.4245 23.0079 22.4245C23.9571 22.4245 24.4317 21.9636 24.4317 21.0417C24.4317 20.0768 23.9512 19.5944 22.9903 19.5944C22.5333 19.5944 22.1817 19.7175 21.9356 19.9636C21.6895 20.2097 21.5665 20.5749 21.5665 21.0593ZM33.0216 22.2077C33.0216 23.2546 32.7579 24.0729 32.2305 24.6628C31.7032 25.2487 30.9747 25.5417 30.045 25.5417C29.4708 25.5417 28.961 25.4069 28.5157 25.1374C28.0704 24.8679 27.7266 24.4811 27.4845 23.9772C27.2423 23.4733 27.1212 22.8835 27.1212 22.2077C27.1212 21.1608 27.3829 20.3464 27.9063 19.7643C28.4298 19.1784 29.1563 18.8854 30.086 18.8854C30.9845 18.8854 31.6973 19.1843 32.2247 19.7819C32.7559 20.3796 33.0216 21.1882 33.0216 22.2077ZM28.129 22.2077C28.129 23.028 28.293 23.653 28.6212 24.0827C28.9493 24.5124 29.4317 24.7272 30.0684 24.7272C30.7052 24.7272 31.1876 24.5143 31.5157 24.0886C31.8477 23.6589 32.0137 23.0319 32.0137 22.2077C32.0137 21.3913 31.8477 20.7722 31.5157 20.3503C31.1876 19.9245 30.7012 19.7116 30.0567 19.7116C29.42 19.7116 28.9395 19.9206 28.6153 20.3386C28.2911 20.7565 28.129 21.3796 28.129 22.2077Z" fill="#323232"/>
</svg>
