<svg width="44" height="44" viewBox="0 0 44 44" fill="none" xmlns="http://www.w3.org/2000/svg">
<g clip-path="url(#clip0)">
<path d="M25.0442 28.8739V37.855C24.4425 37.9326 23.8332 37.9326 23.2314 37.855V30.146C23.6069 30.0712 23.9623 29.9193 24.2745 29.7001C24.5868 29.481 24.849 29.1995 25.0442 28.8739Z" fill="url(#paint0_linear)"/>
<path d="M21.7777 14.5888C21.7791 14.7188 21.7414 14.8463 21.6694 14.9552C21.5973 15.0641 21.4942 15.1494 21.3731 15.2003C21.2519 15.2512 21.1182 15.2655 20.9889 15.2413C20.8596 15.2171 20.7404 15.1555 20.6465 15.0643C20.5526 14.9731 20.4883 14.8565 20.4615 14.7291C20.4348 14.6018 20.4469 14.4694 20.4963 14.3489C20.5457 14.2283 20.6302 14.125 20.7391 14.0519C20.848 13.9788 20.9764 13.9393 21.108 13.9384C21.1954 13.9371 21.2822 13.9529 21.3633 13.985C21.4444 14.017 21.5183 14.0647 21.5806 14.1252C21.6429 14.1857 21.6924 14.2578 21.7262 14.3374C21.7601 14.417 21.7776 14.5024 21.7777 14.5888Z" fill="url(#paint1_linear)"/>
<path d="M24.3757 27.5414C24.3761 27.8657 24.2792 28.1829 24.0972 28.4528C23.9152 28.7227 23.6562 28.9332 23.353 29.0577C23.0499 29.1821 22.7162 29.2149 22.3942 29.1519C22.0722 29.0889 21.7763 28.9329 21.5441 28.7037C21.3118 28.4745 21.1535 28.1824 21.0893 27.8643C21.0251 27.5462 21.0578 27.2164 21.1833 26.9167C21.3088 26.617 21.5215 26.3609 21.7944 26.1806C22.0673 26.0004 22.3882 25.9042 22.7165 25.9042C22.9343 25.9039 23.15 25.946 23.3512 26.0281C23.5525 26.1103 23.7355 26.2308 23.8896 26.3828C24.0437 26.5349 24.1659 26.7155 24.2493 26.9143C24.3328 27.1131 24.3757 27.3262 24.3757 27.5414Z" fill="url(#paint2_linear)"/>
<path d="M30.7666 15.4421C30.7659 15.618 30.7126 15.7897 30.6133 15.9357C30.514 16.0817 30.3732 16.1953 30.2086 16.2624C30.044 16.3294 29.8631 16.3469 29.6885 16.3125C29.5139 16.2781 29.3536 16.1934 29.2276 16.0691C29.1017 15.9448 29.0158 15.7865 28.9807 15.614C28.9457 15.4415 28.9631 15.2627 29.0307 15.1C29.0984 14.9373 29.2132 14.798 29.3609 14.6997C29.5085 14.6014 29.6822 14.5485 29.8602 14.5476C29.9792 14.5475 30.097 14.5705 30.207 14.6154C30.317 14.6602 30.4169 14.7261 30.5011 14.8092C30.5852 14.8922 30.652 14.9909 30.6976 15.0995C30.7432 15.2081 30.7666 15.3245 30.7666 15.4421Z" fill="url(#paint3_linear)"/>
<path d="M10.1043 15.8209C9.94633 15.8207 9.79201 15.7742 9.66079 15.6874C9.52957 15.6005 9.42733 15.4772 9.367 15.333C9.30667 15.1888 9.29094 15.0301 9.32181 14.8771C9.35267 14.7241 9.42874 14.5835 9.54042 14.4731C9.65209 14.3628 9.79437 14.2876 9.94925 14.2571C10.1041 14.2266 10.2647 14.2422 10.4106 14.3018C10.5566 14.3614 10.6814 14.4624 10.7693 14.592C10.8572 14.7217 10.9042 14.8742 10.9044 15.0303C10.9041 15.2399 10.8197 15.4408 10.6697 15.589C10.5197 15.7372 10.3164 15.8206 10.1043 15.8209Z" fill="url(#paint4_linear)"/>
<path d="M23.0975 12.6617V13.4215H38.6852C38.5098 14.003 38.2366 14.5511 37.8769 15.0428H31.2008C31.1055 14.7207 30.8957 14.4435 30.61 14.2621C30.3242 14.0808 29.9818 14.0075 29.6458 14.0559C29.3097 14.1042 29.0027 14.2709 28.7811 14.5252C28.5595 14.7795 28.4384 15.1043 28.44 15.4398C28.4376 15.7785 28.5601 16.1064 28.7847 16.3623C29.0092 16.6181 29.3204 16.7844 29.66 16.83C29.9997 16.8756 30.3445 16.7974 30.63 16.61C30.9155 16.4225 31.1221 16.1388 31.2112 15.8117H37.2153L36.9763 16.0228C35.959 16.8458 34.6839 17.2939 33.3692 17.2904C30.598 17.2733 27.8131 17.2653 25.0431 17.2402V26.2111C24.8044 25.8086 24.4636 25.4745 24.0544 25.2418C23.6452 25.0091 23.1816 24.8859 22.7095 24.8842C22.3352 24.8896 21.9658 24.9703 21.6241 25.1215V15.6269C21.8657 15.5142 22.0608 15.3231 22.1769 15.0854C22.293 14.8477 22.3232 14.5778 22.2622 14.3208C22.2013 14.0638 22.053 13.8353 21.8421 13.6733C21.6312 13.5113 21.3705 13.4257 21.1034 13.4307C20.7931 13.4313 20.4956 13.5534 20.2762 13.7702C20.0568 13.987 19.9332 14.2809 19.9326 14.5876C19.9347 14.8038 19.9973 15.0152 20.1134 15.1984C20.2296 15.3817 20.3948 15.5296 20.5908 15.6258V25.9316C20.2247 26.3915 20.0259 26.9597 20.0261 27.5448C20.0284 28.1593 20.2459 28.7541 20.6415 29.2283C21.0372 29.7024 21.5867 30.0267 22.1969 30.1461V37.6475C21.7349 37.5615 21.2903 37.4016 20.8806 37.174V31.1272H20.0169V36.5499C19.2128 35.7467 18.7349 34.6798 18.674 33.5516V17.2367C14.0324 17.2618 9.3907 17.2709 4.7652 17.2869C4.77328 17.2698 4.77328 17.2527 4.78252 17.2367C5.00101 16.6193 5.28755 16.0274 5.63696 15.4718H8.75449C8.86097 15.7864 9.07725 16.0533 9.36464 16.2248C9.65202 16.3964 9.99177 16.4613 10.3232 16.408C10.6545 16.3547 10.9559 16.1866 11.1734 15.9339C11.3909 15.6812 11.5104 15.3603 11.5104 15.0285C11.5104 14.6968 11.3909 14.3758 11.1734 14.1231C10.9559 13.8704 10.6545 13.7024 10.3232 13.6491C9.99177 13.5958 9.65202 13.6607 9.36464 13.8322C9.07725 14.0037 8.86097 14.2707 8.75449 14.5853H6.29279C6.82819 13.9514 7.46328 13.4067 8.17372 12.9721C9.39297 12.225 10.7922 11.8137 12.2265 11.7809H38.9577C38.9403 11.895 38.9403 12.2202 38.8722 12.6594L23.0975 12.6617Z" fill="url(#paint5_linear)"/>
<path d="M21.7304 -0.00512695C16.6645 3.79542e-05 11.7515 1.71057 7.80135 4.8445C3.85117 7.97844 1.09954 12.3487 0 17.235H2.11069C3.01536 13.5991 4.93651 10.2878 7.6548 7.67914C10.3731 5.07052 13.779 3.26973 17.4835 2.48238C21.1881 1.69502 25.0421 1.95282 28.6055 3.22636C32.1689 4.4999 35.298 6.73787 37.6357 9.6847C39.9734 12.6315 41.4253 16.1685 41.8258 19.8917C42.2262 23.615 41.559 27.3745 39.9004 30.741C38.2418 34.1074 35.6586 36.9452 32.4457 38.9304C29.2328 40.9155 25.5197 41.9679 21.7304 41.9675C20.7088 41.9685 19.6885 41.8922 18.6787 41.7393V43.7838C19.6894 43.9267 20.7093 43.9973 21.7304 43.9949C27.6354 43.9949 33.2986 41.677 37.4741 37.5512C41.6496 33.4254 43.9954 27.8296 43.9954 21.9949C43.9954 16.1601 41.6496 10.5643 37.4741 6.43852C33.2986 2.31272 27.6354 -0.00512695 21.7304 -0.00512695Z" fill="url(#paint6_linear)"/>
</g>
<defs>
<linearGradient id="paint0_linear" x1="24.1378" y1="28.8739" x2="24.1378" y2="37.9132" gradientUnits="userSpaceOnUse">
<stop stop-color="#584EB8"/>
<stop offset="1" stop-color="#4D4ACA"/>
</linearGradient>
<linearGradient id="paint1_linear" x1="21.1127" y1="13.9384" x2="21.1127" y2="15.2528" gradientUnits="userSpaceOnUse">
<stop stop-color="#584EB8"/>
<stop offset="1" stop-color="#4D4ACA"/>
</linearGradient>
<linearGradient id="paint2_linear" x1="22.7165" y1="25.9042" x2="22.7165" y2="29.1831" gradientUnits="userSpaceOnUse">
<stop stop-color="#584EB8"/>
<stop offset="1" stop-color="#4D4ACA"/>
</linearGradient>
<linearGradient id="paint3_linear" x1="29.8648" y1="14.5476" x2="29.8648" y2="16.3297" gradientUnits="userSpaceOnUse">
<stop stop-color="#584EB8"/>
<stop offset="1" stop-color="#4D4ACA"/>
</linearGradient>
<linearGradient id="paint4_linear" x1="10.1054" y1="14.2419" x2="10.1054" y2="15.8209" gradientUnits="userSpaceOnUse">
<stop stop-color="#584EB8"/>
<stop offset="1" stop-color="#4D4ACA"/>
</linearGradient>
<linearGradient id="paint5_linear" x1="21.8614" y1="11.7809" x2="21.8614" y2="37.6475" gradientUnits="userSpaceOnUse">
<stop stop-color="#584EB8"/>
<stop offset="1" stop-color="#4D4ACA"/>
</linearGradient>
<linearGradient id="paint6_linear" x1="11.2821" y1="2.8199" x2="37.7949" y2="41.1789" gradientUnits="userSpaceOnUse">
<stop stop-color="#574DB8"/>
<stop offset="1" stop-color="#4E4BCE"/>
</linearGradient>
<clipPath id="clip0">
<rect width="44" height="44" fill="white"/>
</clipPath>
</defs>
</svg>
