<svg width="11" height="15" viewBox="0 0 11 15" fill="none" xmlns="http://www.w3.org/2000/svg">
<path d="M5.10696 8.51962C4.64787 8.51962 4.19908 8.3809 3.81736 8.121C3.43564 7.8611 3.13812 7.49169 2.96243 7.05949C2.78674 6.62728 2.74077 6.1517 2.83034 5.69288C2.9199 5.23405 3.14098 4.8126 3.46561 4.48181C3.79024 4.15101 4.20384 3.92574 4.65411 3.83447C5.10439 3.74321 5.57111 3.79005 5.99526 3.96907C6.41941 4.1481 6.78193 4.45126 7.03699 4.84023C7.29205 5.22921 7.42819 5.68651 7.42819 6.15432C7.42819 6.78164 7.18363 7.38326 6.74832 7.82684C6.313 8.27042 5.72259 8.51962 5.10696 8.51962ZM5.10696 4.73501C4.83148 4.73501 4.56218 4.81825 4.33313 4.97421C4.10407 5.13016 3.92554 5.35183 3.82012 5.61118C3.7147 5.87052 3.68711 6.1559 3.74086 6.43122C3.7946 6.70654 3.92726 6.95944 4.12206 7.15793C4.31685 7.35643 4.56504 7.4916 4.83523 7.54637C5.10542 7.60113 5.38548 7.57303 5.63999 7.4656C5.8945 7.35818 6.11204 7.17626 6.26509 6.94285C6.41814 6.70945 6.49983 6.43504 6.49983 6.15432C6.49983 5.7779 6.35308 5.41689 6.09187 5.15072C5.83066 4.88454 5.47637 4.73501 5.10696 4.73501Z" fill="#5C4FB8"/>
<path d="M5.10697 14.1962L1.19036 9.48944C1.136 9.41861 1.08231 9.34755 1.02928 9.27627C0.360048 8.37823 -0.00153828 7.28125 4.91914e-06 6.15364C4.90501e-06 5.4702 0.132109 4.79346 0.388775 4.16205C0.645441 3.53064 1.02164 2.95692 1.4959 2.47366C1.97015 1.9904 2.53318 1.60705 3.15282 1.34552C3.77247 1.08398 4.4366 0.949364 5.1073 0.949364C5.778 0.949364 6.44214 1.08398 7.06178 1.34552C7.68143 1.60705 8.24445 1.9904 8.71871 2.47366C9.19297 2.95692 9.56917 3.53064 9.82583 4.16205C10.0825 4.79346 10.2146 5.4702 10.2146 6.15364C10.2162 7.28073 9.85484 8.37723 9.18599 9.27491C9.18599 9.27491 9.04697 9.46151 9.02558 9.48671L5.10697 14.1962ZM1.76983 8.70622C1.76983 8.70622 1.87811 8.85197 1.9035 8.8833L5.10764 12.734L8.31578 8.87785C8.33583 8.85197 8.44478 8.70486 8.44544 8.70486C8.99203 7.97107 9.28739 7.07487 9.28624 6.15364C9.30035 5.58559 9.20273 5.02042 8.99914 4.49142C8.79556 3.96241 8.49012 3.48028 8.10083 3.07344C7.71154 2.66659 7.24627 2.34326 6.73244 2.1225C6.21861 1.90173 5.66661 1.788 5.10897 1.788C4.55134 1.788 3.99934 1.90173 3.48551 2.1225C2.97168 2.34326 2.50641 2.66659 2.11712 3.07344C1.72783 3.48028 1.42239 3.96241 1.2188 4.49142C1.01522 5.02042 0.9176 5.58559 0.931703 6.15364C0.930945 7.07523 1.22677 7.97166 1.77384 8.70554L1.76983 8.70622Z" fill="#5C4FB8"/>
</svg>
