<svg width="42" height="44" viewBox="0 0 42 44" fill="none" xmlns="http://www.w3.org/2000/svg">
<path d="M23.9058 29.2177V37.9947C23.3315 38.0705 22.7498 38.0705 22.1755 37.9947V30.4609C22.5339 30.3878 22.8731 30.2393 23.1711 30.0251C23.4692 29.811 23.7195 29.5359 23.9058 29.2177Z" fill="white"/>
<path d="M20.7879 15.2571C20.7892 15.3842 20.7532 15.5089 20.6844 15.6153C20.6156 15.7217 20.5172 15.805 20.4016 15.8548C20.2859 15.9045 20.1583 15.9185 20.0349 15.8948C19.9114 15.8712 19.7977 15.811 19.7081 15.7219C19.6184 15.6328 19.557 15.5188 19.5314 15.3943C19.5059 15.2698 19.5175 15.1405 19.5646 15.0227C19.6118 14.9049 19.6925 14.8039 19.7964 14.7325C19.9004 14.6611 20.0229 14.6225 20.1486 14.6216C20.232 14.6203 20.3148 14.6357 20.3922 14.6671C20.4696 14.6984 20.5402 14.745 20.5996 14.8041C20.6591 14.8632 20.7064 14.9337 20.7387 15.0115C20.771 15.0893 20.7877 15.1728 20.7879 15.2571Z" fill="white"/>
<path d="M23.2677 27.9154C23.2681 28.2324 23.1756 28.5424 23.0018 28.8062C22.8281 29.0699 22.5809 29.2757 22.2915 29.3973C22.0021 29.5189 21.6836 29.5509 21.3763 29.4893C21.0689 29.4278 20.7865 29.2753 20.5648 29.0514C20.343 28.8274 20.192 28.5419 20.1307 28.2311C20.0694 27.9202 20.1006 27.5979 20.2204 27.305C20.3402 27.0121 20.5432 26.7618 20.8037 26.5856C21.0642 26.4095 21.3705 26.3154 21.6839 26.3154C21.8918 26.3152 22.0977 26.3563 22.2898 26.4366C22.4819 26.5169 22.6566 26.6346 22.8037 26.7832C22.9508 26.9318 23.0675 27.1083 23.1471 27.3026C23.2267 27.4969 23.2677 27.7051 23.2677 27.9154Z" fill="white"/>
<path d="M29.3682 16.0911C29.3675 16.263 29.3166 16.4309 29.2218 16.5735C29.127 16.7162 28.9926 16.8273 28.8355 16.8928C28.6784 16.9583 28.5057 16.9754 28.339 16.9418C28.1724 16.9081 28.0193 16.8254 27.8991 16.7039C27.7789 16.5824 27.6969 16.4277 27.6634 16.2591C27.63 16.0906 27.6466 15.9159 27.7112 15.7569C27.7757 15.5979 27.8854 15.4617 28.0263 15.3657C28.1672 15.2696 28.3331 15.2179 28.503 15.217C28.6165 15.2168 28.729 15.2393 28.834 15.2832C28.9389 15.3271 29.0343 15.3914 29.1147 15.4726C29.195 15.5538 29.2588 15.6502 29.3023 15.7563C29.3458 15.8625 29.3682 15.9762 29.3682 16.0911Z" fill="white"/>
<path d="M9.64499 16.4613C9.49424 16.4611 9.34693 16.4157 9.22168 16.3308C9.09642 16.2459 8.99883 16.1254 8.94124 15.9845C8.88365 15.8436 8.86864 15.6885 8.89811 15.539C8.92757 15.3894 9.00018 15.252 9.10678 15.1442C9.21338 15.0363 9.34919 14.9629 9.49703 14.933C9.64488 14.9032 9.79813 14.9184 9.93745 14.9767C10.0768 15.035 10.1959 15.1337 10.2798 15.2604C10.3637 15.3871 10.4086 15.5361 10.4088 15.6886C10.4085 15.8935 10.3279 16.0898 10.1848 16.2347C10.0416 16.3795 9.84747 16.461 9.64499 16.4613Z" fill="white"/>
<path d="M22.0476 13.3739V14.1165H36.9268C36.7594 14.6847 36.4986 15.2204 36.1552 15.7009H29.7826C29.6916 15.3861 29.4914 15.1152 29.2186 14.938C28.9459 14.7607 28.619 14.6892 28.2983 14.7364C27.9775 14.7836 27.6844 14.9465 27.4729 15.195C27.2614 15.4435 27.1458 15.761 27.1473 16.0889C27.145 16.4199 27.2619 16.7403 27.4763 16.9904C27.6906 17.2404 27.9877 17.4029 28.3119 17.4475C28.6361 17.492 28.9652 17.4156 29.2377 17.2324C29.5102 17.0493 29.7074 16.772 29.7925 16.4524H35.5237L35.2956 16.6587C34.3246 17.463 33.1074 17.9009 31.8524 17.8974C29.2072 17.8807 26.5488 17.8729 23.9048 17.8483V26.6154C23.6769 26.222 23.3516 25.8955 22.961 25.6681C22.5704 25.4407 22.1279 25.3203 21.6773 25.3186C21.3199 25.3239 20.9674 25.4028 20.6412 25.5505V16.2718C20.8718 16.1616 21.058 15.9748 21.1689 15.7425C21.2797 15.5102 21.3085 15.2465 21.2503 14.9953C21.1922 14.7442 21.0506 14.5208 20.8493 14.3625C20.648 14.2042 20.3991 14.1205 20.1442 14.1254C19.848 14.126 19.564 14.2453 19.3546 14.4572C19.1451 14.6691 19.0272 14.9563 19.0266 15.256C19.0286 15.4673 19.0883 15.6739 19.1992 15.853C19.3101 16.0321 19.4678 16.1766 19.6548 16.2706V26.3422C19.3054 26.7917 19.1156 27.347 19.1159 27.9188C19.1181 28.5193 19.3256 29.1006 19.7033 29.564C20.081 30.0274 20.6055 30.3443 21.1879 30.4609V37.7918C20.747 37.7079 20.3226 37.5516 19.9315 37.3291V31.4198H19.107V36.7192C18.3395 35.9343 17.8834 34.8916 17.8252 33.7891V17.845C13.3945 17.8695 8.96386 17.8784 4.54861 17.894C4.55632 17.8773 4.55632 17.8606 4.56514 17.845C4.7737 17.2415 5.04722 16.6631 5.38074 16.1201H8.35657C8.45821 16.4276 8.66466 16.6885 8.93898 16.8561C9.21331 17.0237 9.53761 17.0871 9.85393 17.0351C10.1702 16.983 10.4579 16.8187 10.6655 16.5718C10.8732 16.3248 10.9872 16.0111 10.9872 15.6869C10.9872 15.3627 10.8732 15.0491 10.6655 14.8021C10.4579 14.5551 10.1702 14.3909 9.85393 14.3389C9.53761 14.2868 9.21331 14.3502 8.93898 14.5178C8.66466 14.6855 8.45821 14.9463 8.35657 15.2538H6.00676C6.51782 14.6343 7.12405 14.102 7.8022 13.6772C8.96603 12.9471 10.3017 12.5452 11.6708 12.5132H37.1869C37.1703 12.6247 37.1703 12.9424 37.1053 13.3717L22.0476 13.3739Z" fill="white"/>
<path d="M20.7427 0.99469C15.907 0.999737 11.2174 2.67139 7.44674 5.7341C3.67612 8.79682 1.04956 13.0678 0 17.843H2.01475C2.8783 14.2897 4.71212 11.0536 7.30685 8.50431C9.90158 5.95498 13.1526 4.19512 16.6888 3.42566C20.225 2.6562 23.9038 2.90814 27.3053 4.15273C30.7067 5.39733 33.6936 7.58444 35.925 10.4643C38.1564 13.3442 39.5423 16.8007 39.9246 20.4393C40.3068 24.078 39.67 27.752 38.0868 31.042C36.5035 34.332 34.0377 37.1053 30.9709 39.0453C27.904 40.9853 24.3597 42.0138 20.7427 42.0134C19.7674 42.0144 18.7936 41.9398 17.8296 41.7904V43.7884C18.7945 43.9281 19.768 43.997 20.7427 43.9947C26.3793 43.9947 31.785 41.7295 35.7707 37.6975C39.7564 33.6655 41.9956 28.1968 41.9956 22.4947C41.9956 16.7925 39.7564 11.3239 35.7707 7.29189C31.785 3.25986 26.3793 0.99469 20.7427 0.99469Z" fill="white"/>
</svg>
