<svg width="14" height="13" viewBox="0 0 14 13" fill="none" xmlns="http://www.w3.org/2000/svg">
<path d="M0 9.62578H13.99V10.6448H0V9.62578Z" fill="#5C4FB8"/>
<path d="M0 11.6627H13.99V12.6817H0V11.6627Z" fill="#5C4FB8"/>
<path d="M10.992 3.51695C10.7942 3.51695 10.6009 3.57672 10.4364 3.68868C10.272 3.80065 10.1438 3.95979 10.0681 4.14599C9.99242 4.33219 9.97262 4.53707 10.0112 4.73473C10.0498 4.9324 10.145 5.11396 10.2849 5.25647C10.4247 5.39898 10.6029 5.49603 10.7969 5.53535C10.9909 5.57467 11.1919 5.55449 11.3747 5.47736C11.5574 5.40024 11.7136 5.26963 11.8235 5.10206C11.9333 4.93449 11.992 4.73748 11.992 4.53594C11.992 4.26569 11.8866 4.0065 11.6991 3.81541C11.5116 3.62431 11.2572 3.51695 10.992 3.51695Z" fill="#5C4FB8"/>
<path d="M6.99599 6.57493C6.60043 6.57493 6.21375 6.4554 5.88485 6.23147C5.55595 6.00753 5.2996 5.68924 5.14823 5.31685C4.99685 4.94446 4.95725 4.53469 5.03442 4.13936C5.11159 3.74404 5.30207 3.3809 5.58177 3.09589C5.86148 2.81087 6.21785 2.61677 6.60581 2.53814C6.99377 2.4595 7.3959 2.49986 7.76136 2.65411C8.12681 2.80836 8.43916 3.06957 8.65893 3.40472C8.87869 3.73986 8.99599 4.13388 8.99599 4.53695C8.99599 5.07746 8.78527 5.59582 8.4102 5.97802C8.03513 6.36021 7.52642 6.57493 6.99599 6.57493ZM6.99599 3.51797C6.79821 3.51797 6.60487 3.57773 6.44042 3.6897C6.27597 3.80166 6.1478 3.96081 6.07211 4.147C5.99642 4.3332 5.97662 4.53808 6.0152 4.73575C6.05379 4.93341 6.14903 5.11498 6.28888 5.25749C6.42873 5.39999 6.60692 5.49704 6.8009 5.53636C6.99488 5.57568 7.19595 5.5555 7.37867 5.47837C7.5614 5.40125 7.71758 5.27064 7.82746 5.10307C7.93734 4.9355 7.99599 4.73849 7.99599 4.53695C7.99599 4.2667 7.89063 4.00752 7.7031 3.81642C7.51556 3.62532 7.2612 3.51797 6.99599 3.51797Z" fill="#5C4FB8"/>
<path d="M2.99799 3.51695C2.80021 3.51695 2.60687 3.57672 2.44242 3.68868C2.27797 3.80065 2.14979 3.95979 2.07411 4.14599C1.99842 4.33219 1.97862 4.53707 2.0172 4.73473C2.05579 4.9324 2.15103 5.11396 2.29088 5.25647C2.43073 5.39898 2.60892 5.49603 2.8029 5.53535C2.99688 5.57467 3.19794 5.55449 3.38067 5.47736C3.5634 5.40024 3.71958 5.26963 3.82946 5.10206C3.93934 4.93449 3.99799 4.73748 3.99799 4.53594C3.99799 4.26569 3.89263 4.0065 3.70509 3.81541C3.51756 3.62431 3.2632 3.51695 2.99799 3.51695Z" fill="#5C4FB8"/>
<path d="M12.99 8.60838H0.998993C0.733776 8.60838 0.479422 8.50102 0.291886 8.30993C0.10435 8.11883 -0.00100708 7.85965 -0.00100708 7.58939V1.47547C-0.00100708 1.20522 0.10435 0.946034 0.291886 0.754937C0.479422 0.563839 0.733776 0.456482 0.998993 0.456482H12.99C13.1213 0.456482 13.2514 0.482839 13.3727 0.534048C13.494 0.585257 13.6042 0.660315 13.6971 0.754937C13.79 0.849558 13.8636 0.961891 13.9139 1.08552C13.9641 1.20915 13.99 1.34165 13.99 1.47547V7.58939C13.99 7.85965 13.8846 8.11883 13.6971 8.30993C13.5096 8.50102 13.2552 8.60838 12.99 8.60838ZM12.99 1.48056H0.998993V7.59449H12.99V1.48056Z" fill="#5C4FB8"/>
</svg>
