<svg width="90" height="272" viewBox="0 0 90 272" fill="none" xmlns="http://www.w3.org/2000/svg">
<g clip-path="url(#clip0)">
<path opacity="0.5" d="M-84.4534 238.401C-84.4534 238.401 -116.914 180.849 -94.1525 127.164C-85.6589 107.127 -63.9764 95.8834 -44.044 105.009C-32.2705 110.399 -14.4153 109.603 3.03081 62.0896C26.8229 -2.70642 125.588 26.7586 106.31 140.282C98.1895 188.1 105.772 189.761 90.7801 237.985C90.7801 237.985 56.6776 260.512 21.5756 251.886C-13.5264 243.259 -17.1705 216.109 -50.0695 204.319C-82.9685 192.53 -84.4534 238.401 -84.4534 238.401Z" fill="#7460EE"/>
<path d="M48.4498 38.7081C48.4498 38.7081 44.4679 33.6078 47.4076 31.9611C50.3473 30.3144 51.9261 31.1363 52.2726 32.3893C52.6191 33.6423 52.0585 38.8922 52.0585 38.8922L48.4498 38.7081Z" fill="#FFB27D"/>
<path d="M56.5555 74.1402C51.5424 75.9288 46.4006 77.3196 41.1771 78.2998C37.18 79.0491 33.1377 79.5183 29.0791 79.7043C28.1188 79.7481 27.1924 79.7734 26.2998 79.7801C16.8779 79.8642 11.4096 78.1897 11.4096 78.1897C11.4096 78.1897 17.0703 59.0275 23.9694 58.6072C32.0635 58.1159 46.6864 63.1531 47.7161 60.9102C48.872 58.376 47.1131 38.5806 47.1131 38.5806C50.2693 35.5603 52.777 37.7957 52.777 37.7957C52.777 37.7957 65.0025 71.1445 56.5555 74.1402Z" fill="#F99746"/>
<path d="M56.5626 74.18C51.5533 75.9654 46.4154 77.3536 41.1958 78.3321C37.2018 79.0801 33.1625 79.5485 29.107 79.7341C25.9354 73.2725 23.3372 66.5685 28.2463 70.0683C36.9065 76.2407 56.5626 74.18 56.5626 74.18Z" fill="#ED7D2B"/>
<path d="M33.8109 225.553C33.8109 225.553 34.2988 232.72 35.8911 233.215L54.8076 230.105C54.8076 230.105 54.4666 227.898 51.3518 227.901C48.2369 227.905 42.62 226.974 41.0972 223.119C39.5744 219.263 33.8109 225.553 33.8109 225.553Z" fill="#233862"/>
<path d="M34.4108 137.452C35.0338 142.103 35.5542 146.92 35.7876 151.287C36.8912 172.008 39.9836 196.76 40.4233 201.557C41.1883 209.885 41.6132 223.317 41.6132 223.317C41.6132 223.317 38.8846 226.903 32.415 226.45C27.147 214.226 23.0098 201.532 20.0558 188.53C19.987 188.205 19.9179 187.878 19.8509 187.552C19.3074 184.933 18.6997 181.936 18.0526 178.703C13.7281 157.046 7.67397 124.815 7.67397 124.815L30.6582 115.299C30.6582 115.299 32.8557 125.859 34.4108 137.452Z" fill="#2A4E96"/>
<path d="M34.3584 137.444C29.9492 148.941 21.4424 170.188 18.0321 178.679C13.7159 157.03 7.67322 124.811 7.67322 124.811L30.6139 115.299C30.6139 115.299 32.8062 125.855 34.3584 137.444Z" fill="#233862"/>
<path d="M-14.526 225.059C-14.526 225.059 -17.4173 228.718 -16.4179 230.822C-15.4186 232.925 -12.1485 233.905 -11.3197 236.539C-10.491 239.173 -8.6188 240.381 -7.13862 240.14L-0.0812608 238.994C-0.0812608 238.994 0.714394 236.916 -2.00496 236.77C-4.72432 236.625 -6.2078 233.611 -6.49782 230.637C-6.78392 228.331 -7.22103 226.047 -7.80632 223.801L-13.6008 223.399L-14.526 225.059Z" fill="#233862"/>
<path d="M27.906 122.038C27.906 122.038 13.0741 173.818 4.48675 196.876C-4.1006 219.933 -6.89327 226.432 -6.89327 226.432C-6.89327 226.432 -14.102 224.831 -15.0038 223.088C-15.0038 223.088 -16.7724 181.554 -10.3721 170.319C-6.75502 163.971 -4.09203 146.251 -4.75673 140.313C-5.42143 134.376 -2.39293 119.455 -2.39293 119.455L27.906 122.038Z" fill="#2A4E96"/>
<path d="M34.5804 123.201C28.7232 128.123 21.5813 131.216 14.0296 132.102C8.49122 132.753 -2.66245 132.948 -5.10653 128.812C-5.68066 127.841 -5.58096 126.474 -5.27276 124.351C-4.47818 118.838 -2.26896 108.217 -6.83104 86.2102C-7.23594 84.2849 -7.48758 82.3291 -7.58356 80.3617C-8.09142 69.2398 -2.89435 61.7607 2.76912 58.6731C16.5801 51.1451 22.5539 57.4996 22.5539 57.4996C22.5539 57.4996 29.8097 61.6217 32.451 72.2553C37.7302 93.526 34.5804 123.201 34.5804 123.201Z" fill="#F99746"/>
<path d="M6.76658 56.6961C6.76658 56.6961 14.1038 59.7263 21.1835 57.387C21.1835 57.387 22.562 56.7846 21.5937 55.1948C21.7338 54.4077 21.8317 53.6136 21.8871 52.8162C22.0435 51.54 22.1299 50.2563 22.1456 48.971L17.3474 45.2604L12.7972 41.7082C13.2608 51.8881 6.76658 56.6961 6.76658 56.6961Z" fill="#FFB27D"/>
<path d="M12.7497 45.6104C12.7497 45.6104 15.9291 51.3075 21.8782 52.8216C22.1519 50.3663 22.1861 47.8383 22.1861 47.8383L17.339 45.2669L12.7497 45.6104Z" fill="#ED985F"/>
<path d="M26.7061 48.0028C26.7061 48.0028 14.1701 51.6952 12.0452 43.8969C9.92037 36.0987 6.87165 31.323 14.7862 28.6366C22.7008 25.9501 25.0733 28.4913 26.4195 30.9164C27.7657 33.3414 29.912 46.8423 26.7061 48.0028Z" fill="#FFB27D"/>
<path d="M5.57519 28.8029C5.44346 28.6826 5.16388 28.6068 4.56397 28.6485C4.88135 28.4114 5.25055 28.2555 5.63981 28.1941C5.60458 27.5953 5.74473 26.9986 6.04284 26.4786C6.34094 25.9585 6.78373 25.5383 7.31568 25.2706C7.09983 25.4366 6.92359 25.6494 6.80004 25.8934C6.67649 26.1375 6.6088 26.4063 6.60209 26.6799C8.05245 24.7629 11.442 23.0793 21.3223 22.6529C34.3437 22.0898 31.0634 30.9667 29.5093 32.1683C27.9552 33.37 23.4332 31.1597 20.3512 31.798C17.2692 32.4364 17.2055 37.0514 16.2225 37.8055C15.2394 38.5595 15.5262 37.4053 14.0224 36.929C12.5186 36.4527 12.6606 38.862 13.2539 40.368C13.8473 41.874 12.1235 44.1688 12.1235 44.1688L9.89352 42.2531C7.66349 40.3373 4.72536 31.4213 5.40016 29.3603C5.45622 29.1723 5.51492 28.9887 5.57519 28.8029Z" fill="#2C3A64"/>
<path d="M46.5255 35.1599L24.8812 38.8749L24.2278 35.6213L45.5748 30.4237L46.5255 35.1599Z" fill="#2A4E96"/>
<path d="M62.9608 33.073L39.409 37.2621L38.2201 31.3359L61.475 25.6654L62.9608 33.073Z" fill="#2A4E96"/>
<path d="M78.9339 30.9904L59.0228 34.2637L57.418 26.2493L76.9721 21.1947L78.9339 30.9904Z" fill="#233862"/>
<path d="M79.4223 32.3611C79.7174 32.2989 79.9767 32.1216 80.1431 31.8681C80.3095 31.6146 80.3696 31.3057 80.3101 31.0092L78.2279 20.6672C78.1985 20.5203 78.1404 20.3808 78.0572 20.2568C77.974 20.1328 77.8673 20.0266 77.7431 19.9444C77.6188 19.8622 77.4794 19.8056 77.3331 19.7777C77.1867 19.7499 77.0361 19.7514 76.8898 19.7822V19.7822C76.7437 19.8128 76.6049 19.8721 76.4812 19.9567C76.3575 20.0412 76.2514 20.1494 76.1689 20.2749C76.0865 20.4004 76.0294 20.5409 76.0008 20.6883C75.9722 20.8357 75.9726 20.9872 76.0022 21.134L78.0844 31.476C78.1441 31.7726 78.3186 32.0325 78.5694 32.1985C78.8203 32.3645 79.1271 32.4229 79.4223 32.3611V32.3611Z" fill="#233862"/>
<path d="M24.9348 39.5928C24.8052 39.6208 24.6715 39.6227 24.5415 39.5983C24.4114 39.574 24.2876 39.5239 24.1771 39.451C24.0666 39.3781 23.9717 39.2837 23.8977 39.1734C23.8238 39.063 23.7722 38.9389 23.7461 38.808L23.2085 36.1263C23.1818 35.9956 23.1809 35.8608 23.2059 35.7294C23.2309 35.5981 23.2814 35.4729 23.3544 35.3609C23.4274 35.249 23.5215 35.1526 23.6312 35.0772C23.741 35.0018 23.8644 34.9489 23.9942 34.9216V34.9216C24.1238 34.8938 24.2575 34.892 24.3875 34.9164C24.5175 34.9408 24.6413 34.9909 24.7517 35.0638C24.8622 35.1367 24.9571 35.231 25.0311 35.3413C25.1051 35.4515 25.1567 35.5756 25.1829 35.7064L25.7196 38.3883C25.7463 38.5189 25.7473 38.6537 25.7223 38.7849C25.6973 38.9162 25.6469 39.0414 25.574 39.1533C25.5011 39.2652 25.4071 39.3616 25.2974 39.437C25.1877 39.5124 25.0645 39.5654 24.9348 39.5928V39.5928Z" fill="#2A4E96"/>
<path d="M-5.22939 124.339C-4.43385 118.824 -2.22197 108.198 -6.78955 86.1816C-7.19487 84.2554 -7.44681 82.2988 -7.54298 80.3305V80.3305C-2.79423 79.1322 5.37587 83.1934 5.37587 83.1934C5.37587 83.1934 5.16116 111.835 -5.22939 124.339Z" fill="#ED7D2B"/>
<path d="M6.89825 56.7009C6.89825 56.7009 -5.09042 60.8425 -10.2909 69.8168C-15.4913 78.7911 -24.1001 91.6514 -25.9386 95.9635C-27.7771 100.276 -30.445 128.026 -30.445 128.026C-30.445 128.026 -29.8649 128.813 -27.917 129.005C-26.8442 129.132 -25.7607 128.86 -24.8675 128.241C-24.8675 128.241 -18.2819 111.23 -16.1022 102.912C-15.1951 99.4552 7.13601 82.7255 16.4783 82.5653C20.1507 82.5071 6.89825 56.7009 6.89825 56.7009Z" fill="#F99746"/>
<path d="M45.4967 29.4717C45.4967 29.4717 48.3955 30.6768 49.8704 29.7292C51.3453 28.7816 51.1088 28.1712 51.1088 28.1712C51.1088 28.1712 46.1204 27.6065 45.4967 29.4717Z" fill="#FFB27D"/>
<path d="M20.1754 63.4814C20.1754 63.4814 20.099 98.8624 -16.7005 115.136L-19.5911 124.148L-12.0584 124.212C-12.0584 124.212 29.6279 104.333 22.559 62.4691L20.1754 63.4814Z" fill="#BC3F3F"/>
<path d="M18.3851 58.1021L16.6424 58.5651L17.0426 61.1561L20.0739 63.4733L22.4593 62.4608L21.904 58.8659L19.9199 57.8538L18.3851 58.1021Z" fill="#A02E2E"/>
<path d="M10.388 52.3495C10.388 52.3495 8.73443 53.0191 5.3258 56.9455C5.3258 56.9455 10.5132 64.6728 18.8876 64.3397C18.4927 62.2801 18.3272 60.1812 18.3942 58.0823C18.3942 58.0823 11.5149 56.7825 10.388 52.3495Z" fill="#ED7D2B"/>
<path d="M18.3775 58.1035C18.3775 58.1035 22.7237 59.6055 23.5387 62.913C23.5387 62.913 24.6928 60.2076 23.9851 58.5776C23.3592 57.3455 22.5559 56.2148 21.6013 55.2224C21.6013 55.2224 22.054 57.25 18.3775 58.1035Z" fill="#ED7D2B"/>
</g>
<defs>
<clipPath id="clip0">
<rect width="103" height="272" fill="white" transform="translate(-13)"/>
</clipPath>
</defs>
</svg>
