<svg width="270" height="316" viewBox="0 0 270 316" fill="none" xmlns="http://www.w3.org/2000/svg">
<g clip-path="url(#clip0)">
<path opacity="0.5" d="M-106.321 292.427C-106.321 292.427 -177.344 216.912 -127.542 146.468C-108.959 120.183 -61.5193 105.423 -17.9036 117.397C7.85646 124.47 46.9239 123.427 85.0978 61.0818C137.156 -23.9396 353.256 14.7205 311.075 163.682C293.307 226.428 359.532 229.284 326.728 292.561C326.728 292.561 253.077 321.016 176.272 309.697C99.468 298.378 91.4973 262.754 19.5123 247.282C-52.4728 231.81 -106.321 292.427 -106.321 292.427Z" fill="#7460EE"/>
<path d="M54.8915 183.538C54.5458 172.822 53.5399 162.138 51.8797 151.545C49.7207 139.053 47.7767 131.866 47.7543 131.79C47.47 130.691 43.361 126.247 34.2248 126.388C25.0886 126.528 25.9556 132.355 25.9556 132.355C25.9531 132.53 25.9751 132.704 26.0208 132.873C31.6625 155.772 34.3879 179.293 34.132 202.876C34.127 203.428 34.0648 204.381 34.1046 205.017C34.1046 205.017 55.2766 205.564 55.2817 205.017C56.0204 201.577 55.6597 192.065 54.8915 183.538Z" fill="#B7D3F3"/>
<path d="M57.5528 202.677C57.5466 203.225 57.2573 203.663 56.9058 203.663H56.8976C56.5451 203.654 56.2649 203.217 56.2608 202.677H38.1168C38.1107 203.225 37.8214 203.663 37.4689 203.663H37.4607C37.102 203.654 36.8178 203.201 36.8219 202.644C36.9057 192.287 36.4029 181.933 35.316 171.633C32.9043 148.523 28.4447 133.077 28.3816 132.864C28.3363 132.695 28.3144 132.52 28.3163 132.345C28.3163 132.345 27.4503 126.516 36.5855 126.378C45.7207 126.239 49.8307 130.685 50.116 131.78C50.1323 131.837 51.2368 135.908 52.6968 143.225C53.1818 145.649 53.7045 148.423 54.2424 151.535C55.9015 162.127 56.907 172.812 57.2532 183.528C58.0214 192.065 58.2914 199.245 57.5528 202.677Z" fill="#D2E3FC"/>
<path d="M35.482 203.663H106.62C106.62 203.663 104.964 196.956 63.7669 197.955C34.6099 198.662 35.482 203.663 35.482 203.663Z" fill="#C5DCF8"/>
<path d="M29.6918 273.716C37.9395 231.943 35.8183 206.309 35.805 205.986C35.7836 205.343 36.9686 204.763 37.6064 204.738C38.2442 204.714 41.0991 204.548 41.4282 205.099C41.8592 205.82 43.5199 237.404 31.2283 273.717L29.6918 273.716Z" fill="#B7D3F3"/>
<path d="M96.1098 273.716C87.857 231.943 89.9833 206.309 89.9966 205.986C90.017 205.343 88.833 204.763 88.1952 204.738C87.5574 204.714 84.7036 204.548 84.3735 205.099C83.9425 205.82 82.2807 237.404 94.5734 273.717L96.1098 273.716Z" fill="#B7D3F3"/>
<path d="M109.273 273.716C101.02 231.943 103.146 206.309 103.159 205.986C103.18 205.343 101.995 204.763 101.358 204.738C100.721 204.714 97.8653 204.548 97.5362 205.099C97.1052 205.82 95.4435 237.404 107.736 273.717L109.273 273.716Z" fill="#B7D3F3"/>
<path d="M42.9432 273.716C51.1961 231.943 49.0697 206.309 49.0564 205.986C49.0361 205.343 50.221 204.763 50.8578 204.738C51.4946 204.714 54.3505 204.548 54.6796 205.099C55.1105 205.82 56.7723 237.404 44.4797 273.717L42.9432 273.716Z" fill="#B7D3F3"/>
<path d="M36.0027 201.929H106.18C106.694 201.929 107.186 202.133 107.549 202.496C107.912 202.86 108.116 203.352 108.116 203.866C108.116 204.38 107.912 204.872 107.549 205.235C107.186 205.599 106.694 205.803 106.18 205.803H36.0027C35.4893 205.803 34.9969 205.599 34.6338 205.235C34.2708 204.872 34.0668 204.38 34.0668 203.866V203.866C34.0668 203.352 34.2708 202.86 34.6338 202.496C34.9969 202.133 35.4893 201.929 36.0027 201.929V201.929Z" fill="#B7D3F3"/>
<path d="M104.163 141.531L127.809 136.407L129.202 139.802C129.202 139.802 103.111 155.335 100.666 154.574C98.222 153.812 104.163 141.531 104.163 141.531Z" fill="#FFB27D"/>
<path d="M82.6628 248.524C82.391 248.823 82.2111 249.194 82.1446 249.592C82.0781 249.991 82.1279 250.4 82.2879 250.772C82.2884 250.776 82.2906 250.78 82.294 250.783C82.836 252.281 84.6272 253.955 86.7067 255.626C86.9716 255.84 87.209 256.033 87.4148 256.217C87.4688 256.264 87.5228 256.312 87.5737 256.36C87.6247 256.407 87.6563 256.435 87.696 256.47C89.6318 258.259 88.9054 258.668 92.391 262.298C96.3645 266.435 99.1002 266.509 99.8786 266.132C100.537 265.811 99.199 263.617 97.7176 261.152C97.6452 261.033 97.575 260.913 97.5016 260.793C97.305 260.464 97.1083 260.132 96.9127 259.802C95.1806 256.835 95.6217 255.442 96.0334 251.026C96.3686 247.437 101.614 230.977 101.614 230.977L93.9987 229.665C93.9987 229.665 91.7052 242.772 89.1795 244.791C87.8284 245.867 86.3165 245.881 85.0174 246.678C84.9257 246.734 84.836 246.79 84.7474 246.849C83.9809 247.312 83.2798 247.875 82.6628 248.524Z" fill="#FFB27D"/>
<path d="M82.6628 248.524C82.391 248.823 82.2111 249.194 82.1446 249.592C82.0781 249.991 82.1279 250.4 82.2879 250.771C82.2881 250.774 82.2887 250.776 82.2898 250.778C82.2908 250.78 82.2922 250.781 82.294 250.783C82.9572 252.28 84.7036 253.943 86.7138 255.61C86.9767 255.828 87.209 256.029 87.4148 256.217C87.4688 256.264 87.5228 256.312 87.5737 256.36C87.6247 256.407 87.6563 256.435 87.696 256.47C89.6318 258.259 88.9054 258.668 92.391 262.298C96.3645 266.435 99.1002 266.509 99.8786 266.132C100.537 265.811 99.199 263.617 97.7176 261.152C94.9378 260.066 92.4942 258.265 90.6344 255.93C88.2411 252.872 86.6466 248.951 85.0164 246.678C84.9247 246.734 84.835 246.79 84.7463 246.849C83.9801 247.312 83.2794 247.875 82.6628 248.524Z" fill="#1C468A"/>
<path d="M144.063 243.768C144.534 246.12 147.884 245.728 151.627 244.812C155.37 243.897 154.48 244.986 159.807 244.394C165.135 243.803 166.749 241.817 166.911 241.024C167.057 240.321 164.424 240.073 161.601 239.748C161.246 239.708 160.887 239.665 160.532 239.621C157.344 239.221 155.01 237.162 152.114 235.472C149.371 233.872 145.278 227.349 145.278 227.349L137.972 227.928C137.972 227.928 141.806 233.753 143.289 236.286C144.004 237.843 144.252 239.573 144.002 241.268C143.911 242.1 143.931 242.941 144.063 243.768Z" fill="#FFB27D"/>
<path d="M151.626 244.809C155.369 243.892 154.479 244.983 159.806 244.392C165.134 243.802 166.748 241.815 166.91 241.022C167.056 240.319 164.423 240.071 161.6 239.746L161.573 239.8C159.291 241.265 156.654 242.085 153.944 242.172C150.329 242.261 146.501 241.224 144.005 241.265C143.912 242.097 143.931 242.938 144.061 243.765C144.529 246.115 147.884 245.725 151.626 244.809Z" fill="#1C468A"/>
<path d="M127.807 136.407C127.807 136.407 129.547 132.14 131.462 131.966C133.378 131.791 139.47 130.833 139.905 131.705C140.093 132.604 140.073 133.534 139.847 134.425C139.621 135.315 139.194 136.142 138.6 136.842C137.294 137.974 129.2 139.798 129.2 139.798L127.807 136.407Z" fill="#FFB27D"/>
<path d="M116.064 197.025L100.319 239.421C98.7263 239.54 97.1252 239.392 95.581 238.986C93.9672 238.437 92.4286 237.687 91.0012 236.755C91.0012 236.755 94.9065 196.048 102.068 187.582C109.23 179.115 116.064 197.025 116.064 197.025Z" fill="#163560"/>
<path d="M53.785 179.875C53.785 179.875 99.0299 164.57 109.12 167.826C119.21 171.081 149.507 231.388 149.507 231.388C148.813 232.138 147.934 232.694 146.959 232.999C145.227 233.65 141.021 233.611 141.021 233.611C141.021 233.611 113.68 210.165 110.425 203.325C107.17 196.484 105.867 189.971 102.613 190.624C99.359 191.278 60.6236 206.581 51.8349 197.463C43.0461 188.345 45.3447 176.497 45.3447 176.497L53.785 179.875Z" fill="#1C468A"/>
<path d="M79.5848 71.948C77.7505 71.0203 75.6927 70.6265 73.6458 70.8115C74.0063 70.5108 74.4371 70.3063 74.8979 70.2172C73.759 70.2966 72.6448 70.5874 71.6121 71.0745C57.4723 65.623 55.2491 86.4535 55.5466 91.2934C55.8441 96.1333 55.8777 101.703 48.822 106.042C34.9338 114.582 46.6519 129.488 46.6519 129.488C46.7609 129.552 53.1135 140.331 53.1135 140.331C52.7569 136.421 70.7919 115.783 80.2012 109.603C82.4916 106.229 83.3057 100.269 83.3668 99.7999C82.9715 104.526 82.1635 107.176 81.4411 108.668C89.4025 101.335 84.7637 74.895 79.5848 71.948Z" fill="#B5453C"/>
<path d="M79.6377 109.913C79.6846 109.934 75.0946 112.319 71.6416 111.374C68.3935 110.488 66.2722 106.277 66.316 106.265C67.6915 105.992 68.0878 104.101 68.0593 95.9742L68.6809 96.0966L79.1355 98.1679C79.1355 98.1679 78.897 101.459 78.8899 104.56C78.8838 107.166 79.0417 109.636 79.6377 109.913Z" fill="#FFB27D"/>
<path d="M79.1355 98.1689C79.1355 98.1689 78.897 101.46 78.8909 104.561C73.0406 104.396 69.9483 99.0568 68.6808 96.1007L79.1355 98.1689Z" fill="#ED975D"/>
<path d="M67.5988 94.959C67.5988 94.959 64.5331 90.1129 63.7964 85.9683C63.2707 83.0121 64.7776 72.0429 75.7926 73.6219C78.0108 73.9288 80.132 74.73 81.9995 75.9665C84.3908 77.5821 87.8427 81.0713 83.9832 90.6451L82.9807 93.8785L67.5988 94.959Z" fill="#B5453C"/>
<path d="M81.0896 101.106C81.0896 101.106 67.2483 101.334 67.2381 92.7073C67.2279 84.0805 65.4357 78.3008 74.2683 77.7901C83.1009 77.2794 84.8258 80.5699 85.5299 83.4485C86.2339 86.3272 84.6893 100.823 81.0896 101.106Z" fill="#FFB27D"/>
<path d="M80.5771 77.5791C80.5771 77.5791 76.787 87.6991 70.9713 89.1996C65.1556 90.7001 62.6318 89.1375 62.6318 89.1375C65.5014 86.6157 67.4056 83.1743 68.0186 79.4026C68.0186 79.4026 77.7182 72.7626 80.5771 77.5791Z" fill="#B5453C"/>
<path d="M79.6388 78.4005C79.6388 78.4005 82.4692 80.6605 83.159 82.8572C83.8487 85.054 84.1595 89.5757 85.4769 89.4218C85.4769 89.4218 88.3297 82.5433 85.1233 78.6514C81.7203 74.5261 79.6388 78.4005 79.6388 78.4005Z" fill="#B5453C"/>
<path d="M48.8139 147.17C47.4486 141.443 52.0927 130.329 56.9404 121.128C61.3389 112.789 65.9065 106.023 66.314 106.267C77.9159 113.157 78.9632 107.428 78.9632 107.428C78.9632 107.428 89.5024 108.826 92.4856 113.966C96.1862 120.342 100.185 138.159 104.158 141.531C103.546 143.399 103.809 144.394 104.456 146.708C104.592 147.204 104.745 147.676 104.916 148.121C105.465 149.54 106.132 150.911 106.91 152.218C104.89 153.441 100.992 155.78 98.1189 154.101C93.7378 151.536 90.3236 143.731 88.4 140.622L88.3786 140.587C84.2012 164.258 89.8825 169.648 87.0052 172.145C83.9669 174.781 79.6265 170.89 70.0777 175.03C63.8147 177.749 55.1238 181.679 49.2734 182.363C46.2046 182.723 43.9152 182.189 43.1694 180.12C41.0023 174.091 51.4181 158.089 48.8139 147.17Z" fill="#1C468A"/>
<path d="M78.0127 95.8764C78.0127 95.8764 78.2714 96.9723 80.9959 96.8031C80.9959 96.8031 83.2833 96.6613 83.214 95.4575C81.4872 94.9572 79.6372 95.1063 78.0127 95.8764Z" fill="white"/>
<path d="M43.1725 180.114C43.9183 182.187 46.2087 182.721 49.2765 182.356C53.3255 180.592 70.8195 173.811 70.6239 169.217C70.3335 162.415 67.2616 162.198 69.4307 153.802C71.173 147.061 55.0097 134.526 52.4309 131.801C47.5832 141.002 47.4487 141.437 48.814 147.165C51.4182 158.088 41.0023 174.089 43.1725 180.114Z" fill="#163560"/>
<path d="M41.1948 155.581C43.3843 152.366 46.2761 149.691 49.6514 147.758C49.1613 146.497 62.7001 129.891 62.7001 127.318C62.7001 124.713 66.312 106.264 66.312 106.264C66.312 106.264 55.0321 106.961 51.1308 112.41C46.2454 119.226 36.1015 145.459 41.1948 155.581Z" fill="#1C468A"/>
<path d="M49.6555 147.76L72.198 153.644L70.0818 157.443C70.0818 157.443 42.6488 157.252 41.1949 155.581C39.741 153.91 49.6555 147.76 49.6555 147.76Z" fill="#FFB27D"/>
<path d="M88.4031 140.622C90.3267 143.73 93.7429 151.536 98.122 154.101C100.994 155.779 104.893 153.445 106.913 152.218C106.135 150.911 105.468 149.54 104.919 148.121C103.307 148.49 101.341 148.961 100.073 149.345C97.6055 150.091 88.4031 140.622 88.4031 140.622Z" fill="#163560"/>
<path d="M72.1979 153.644C72.1979 153.644 79.2771 151.64 80.9602 152.108C82.6434 152.576 88.4235 156.404 87.6114 157.443C86.7994 158.483 81.7101 156.822 79.3678 157.138C77.0254 157.454 75.2148 158.609 73.5286 158.361C72.3535 158.161 71.199 157.854 70.0797 157.443L72.1979 153.644Z" fill="#FFB27D"/>
<path d="M72.198 153.644C73.7694 152.862 75.2595 151.926 76.6464 150.85C76.6758 150.821 76.7114 150.798 76.7507 150.785C76.7899 150.771 76.8318 150.766 76.8732 150.771C76.9145 150.775 76.9543 150.789 76.9895 150.812C77.0246 150.834 77.0543 150.864 77.0763 150.899C77.3402 151.316 77.5857 152.122 76.3723 152.92C75.0999 153.618 73.6312 153.873 72.198 153.644Z" fill="#FFB27D"/>
<path d="M104.912 163.608H71.8852C71.8852 163.263 71.9533 162.92 72.0856 162.601C72.2179 162.281 72.4118 161.991 72.6563 161.746C72.9008 161.501 73.191 161.307 73.5104 161.175C73.8298 161.043 74.1722 160.974 74.518 160.974H104.912V163.608Z" fill="#ED7D2B"/>
<path d="M104.817 127.622H155.879L143.631 163.605H92.2381L104.817 127.622Z" fill="#ED7D2B"/>
<path d="M156.632 127.627L144.383 163.611H92.991L105.569 127.627H156.632Z" fill="#F99746"/>
<path d="M129.102 145.283C128.925 145.971 128.531 146.584 127.98 147.032C127.429 147.48 126.749 147.739 126.039 147.772C125.731 147.786 125.425 147.725 125.146 147.595C124.866 147.465 124.622 147.27 124.435 147.026C124.247 146.781 124.121 146.495 124.067 146.192C124.013 145.888 124.033 145.577 124.126 145.283C124.303 144.594 124.696 143.981 125.247 143.533C125.799 143.085 126.479 142.826 127.188 142.793C127.496 142.78 127.802 142.84 128.082 142.97C128.361 143.1 128.605 143.296 128.792 143.54C128.98 143.784 129.106 144.07 129.16 144.373C129.214 144.677 129.194 144.989 129.102 145.283Z" fill="#F9DDBF"/>
<path d="M156.633 127.627L144.383 163.611H110.353C132.898 155.911 138.899 132.438 139.906 127.627H156.633Z" fill="#ED893E"/>
<path d="M8.39035 273.717C8.6993 273.719 8.99918 273.613 9.23808 273.417C9.47698 273.221 9.63987 272.947 9.69857 272.644L16.1113 236.275L25.3362 183.97L27.9159 169.344L21.3453 169.157L20.2051 177.648L12.2009 237.315L7.45605 272.687C7.4411 272.817 7.45427 272.95 7.49461 273.075C7.53494 273.201 7.6015 273.316 7.68994 273.413C7.77837 273.511 7.88662 273.589 8.0074 273.641C8.12818 273.693 8.25873 273.719 8.39035 273.717Z" fill="#95C0F4"/>
<path d="M20.2061 177.648C21.479 178.251 22.6007 179.132 23.4886 180.225C24.3765 181.319 25.0082 182.598 25.3372 183.968L27.917 169.342L21.3463 169.155L20.2061 177.648Z" fill="#78ACEA"/>
<path d="M171.815 273.717C171.506 273.719 171.206 273.613 170.967 273.417C170.728 273.221 170.565 272.947 170.507 272.644L164.094 236.275L154.869 183.97L152.289 169.344L158.86 169.157L160 177.648L168.004 237.315L172.749 272.687C172.764 272.817 172.751 272.95 172.711 273.075C172.67 273.201 172.604 273.316 172.515 273.413C172.427 273.511 172.319 273.589 172.198 273.641C172.077 273.693 171.946 273.719 171.815 273.717Z" fill="#95C0F4"/>
<path d="M160 177.648C158.727 178.251 157.605 179.132 156.717 180.225C155.83 181.319 155.198 182.598 154.869 183.968L152.289 169.342L158.86 169.155L160 177.648Z" fill="#78ACEA"/>
<path d="M170.532 175.086L5.74028 175.086C4.21812 175.086 2.75832 174.481 1.68199 173.405C0.605667 172.328 0.000991821 170.867 0.000991821 169.344C0.000991821 167.821 0.605774 166.36 1.6823 165.283C2.7588 164.206 4.21887 163.601 5.7413 163.601L170.532 163.601C172.054 163.601 173.514 164.206 174.59 165.283C175.667 166.36 176.271 167.82 176.271 169.343C176.271 170.098 176.123 170.844 175.835 171.541C175.546 172.238 175.124 172.871 174.591 173.404C174.058 173.938 173.425 174.361 172.729 174.649C172.032 174.938 171.286 175.086 170.532 175.086V175.086Z" fill="#78ACEA"/>
<path d="M166.965 143.325C166.965 143.325 161.966 149.528 163.529 150.373C165.092 151.218 169.221 152.8 170.194 151.8C171.167 150.8 171.473 143.495 171.473 143.495L166.965 143.325Z" fill="#FFB27D"/>
<path d="M167.169 143.428C166.094 143.791 165.117 144.398 164.316 145.201C163.513 146.264 161.735 147.886 162.17 148.335C162.605 148.785 165.157 146.799 165.157 146.799L167.169 143.428Z" fill="#FFB27D"/>
<path d="M185.859 60.512C185.859 60.512 180.224 112.979 179.723 114.473C179.614 114.798 179.172 116.459 178.55 118.849C177.664 122.261 176.411 127.166 175.222 131.827C173.43 138.872 171.784 145.373 171.784 145.373L166.894 143.762C166.894 143.762 166.641 118.265 167.897 112.394C169.153 106.524 173.18 70.4487 175.214 65.5935C177.247 60.7383 185.859 60.512 185.859 60.512Z" fill="#AEC3FF"/>
<path d="M174.145 186.327L143.421 178.266C141.496 177.754 139.852 176.502 138.847 174.782C137.843 173.062 137.559 171.014 138.058 169.085L141.55 155.764C142.062 153.839 143.314 152.194 145.033 151.188C146.752 150.183 148.799 149.899 150.727 150.399L181.451 158.46C183.376 158.971 185.02 160.224 186.025 161.944C187.03 163.664 187.314 165.712 186.815 167.641L183.323 180.962C182.811 182.888 181.559 184.533 179.84 185.538C178.12 186.543 176.073 186.827 174.145 186.327Z" fill="#A02E2E"/>
<path d="M145.601 156.817L142.07 170.292C141.747 171.535 141.746 172.84 142.067 174.084C142.388 175.327 143.02 176.469 143.904 177.4C144.485 178.018 145.168 178.532 145.922 178.92C146.408 179.172 146.921 179.369 147.451 179.507L178.118 187.552C180.053 188.054 182.108 187.769 183.834 186.76C185.56 185.751 186.816 184.1 187.329 182.167L190.862 168.691C191.363 166.755 191.078 164.699 190.069 162.973C189.06 161.246 187.41 159.989 185.478 159.476L174.918 156.706L175.672 153.832C175.839 153.193 175.746 152.514 175.413 151.944C175.08 151.374 174.535 150.959 173.896 150.791L172.739 150.485L166.32 148.799L164.723 148.381C164.085 148.214 163.407 148.308 162.837 148.641C162.267 148.974 161.853 149.52 161.685 150.158L160.931 153.033L154.818 151.426C154.576 151.363 154.335 151.313 154.095 151.274C154.094 151.275 154.093 151.275 154.092 151.275C154.091 151.275 154.089 151.275 154.088 151.274C152.9 151.089 151.685 151.19 150.543 151.568C149.401 151.947 148.366 152.592 147.523 153.451C146.598 154.384 145.935 155.546 145.601 156.817ZM173.416 156.308L162.441 153.429L163.195 150.555C163.258 150.316 163.413 150.113 163.625 149.989C163.838 149.865 164.091 149.83 164.329 149.892L167.08 150.615L172.137 151.94L173.501 152.299C173.591 152.323 173.678 152.361 173.758 152.411C173.925 152.516 174.054 152.671 174.128 152.854C174.201 153.037 174.214 153.239 174.165 153.43L173.416 156.308Z" fill="#BC3F3F"/>
<path d="M169.885 151.941C169.885 151.941 171.25 149.641 170.739 148.839C170.227 148.037 168.386 151.222 168.386 151.222C168.386 151.222 169.644 148.487 169.174 148.037C168.704 147.586 166.779 150.731 166.779 150.731C166.779 150.731 167.978 148.073 167.558 147.979C167.138 147.884 165.708 150.213 165.708 150.213C165.708 150.213 166.45 148.222 165.772 148.318C165.093 148.414 163.625 150.229 163.625 150.229L169.885 151.941Z" fill="#FFB27D"/>
<path d="M178.55 118.849C177.664 122.261 176.411 127.165 175.223 131.827C174.08 128.487 173.291 125.036 172.868 121.532C171.736 112.849 175.212 94.3504 175.212 94.3504L178.55 118.849Z" fill="#9DB0F4"/>
<path d="M242.996 141.167C242.996 141.167 248.443 145.593 249.116 146.978C249.79 148.362 251.482 153.481 251.392 155.133C251.303 156.784 247.215 151.356 246.02 150.919C244.825 150.481 247.273 153.145 246.997 153.718C246.721 154.291 244.166 152.423 243.191 151.811C242.216 151.2 241.533 147.06 240.079 144.807C238.625 142.555 242.996 141.167 242.996 141.167Z" fill="#FFB27D"/>
<path d="M171.522 273.717H198.679C200.625 272.392 198.154 259.49 198.154 259.49C198.154 259.49 190.742 256.677 189.463 262.398C188.183 268.12 180.022 269.934 175.708 270.632C172.751 271.112 171.817 272.736 171.522 273.717Z" fill="#233862"/>
<path d="M211.798 273.717H238.955C240.901 272.392 238.43 259.49 238.43 259.49C238.43 259.49 231.019 256.677 229.738 262.398C228.458 268.12 220.298 269.934 215.984 270.632C213.027 271.112 212.092 272.736 211.798 273.717Z" fill="#233862"/>
<path d="M178.829 142.047C178.829 142.047 180.051 157.283 181.485 175.598C183.434 200.478 188.693 262.163 188.693 262.163C188.693 262.163 192.141 265.106 199.779 263.496C204.047 248.614 206.875 233.355 208.224 217.931C208.254 217.532 208.284 217.132 208.315 216.73C210.123 192.006 212.935 139.939 212.935 139.939L178.829 142.047Z" fill="#2B478B"/>
<path d="M178.413 136.782C178.413 136.782 180.049 157.283 181.485 175.598L208.224 217.928C208.255 217.529 208.284 217.129 208.315 216.727C210.123 192.002 212.935 139.936 212.935 139.936L178.413 136.782Z" fill="#233862"/>
<path d="M186.205 136.784C186.205 136.784 205.598 185.08 211.798 203.387C216.214 216.427 228.669 262.174 228.669 262.174C228.669 262.174 234.085 263.823 238.636 260.636C238.636 260.636 243.269 213.898 233.91 200.719C228.944 193.727 232.676 128.039 212.543 127.475C192.41 126.912 186.205 136.784 186.205 136.784Z" fill="#2B478B"/>
<path d="M223.162 141.167C215.075 145.731 180.433 145.629 178.829 142.046C175.244 134.046 174.346 93.3962 176.037 80.9275C176.037 80.9275 176.912 61.7636 178.829 62.6107C191.623 56.729 212.335 62.0705 212.335 62.0705C217.919 63.7168 217.441 76.4841 218.999 94.4125C219.203 96.7234 219.422 99.1312 219.671 101.619C220.772 112.692 222.376 125.41 224.813 138.826C224.977 139.71 224.362 140.491 223.162 141.167Z" fill="#AEC3FF"/>
<path d="M202.767 59.9156C202.552 63.3437 198.08 62.9543 192.711 61.727C187.341 60.4997 189.284 57.3335 189.284 57.3335C189.284 57.3335 189.364 54.8983 189.703 51.9799C189.827 50.9188 189.982 49.7903 190.186 48.6955C190.281 48.1593 190.39 47.6314 190.507 47.1217C191.208 44.1054 201.239 47.0197 201.166 47.8281C200.972 50.0167 202.556 57.2245 202.767 59.9156Z" fill="#FFB27D"/>
<path d="M191.252 65.8972L190.827 61.1623L196.774 62.2835L194.486 66.5109L191.252 65.8972Z" fill="#233862"/>
<path d="M189.413 55.1043L185.859 60.5069C185.933 61.6284 186.247 62.7209 186.779 63.7108C187.311 64.7008 188.049 65.5651 188.943 66.2458L193.802 61.7189C193.802 61.7189 190.665 60.5211 189.413 55.1043Z" fill="#9DB0F4"/>
<path d="M193.801 61.7229C193.801 61.7229 194.81 65.3386 196.756 66.9971C196.756 66.9971 204.343 64.9584 206.151 61.0675L202.199 55.9635C202.199 55.9635 202.007 59.8248 193.801 61.7229Z" fill="#9DB0F4"/>
<path d="M201.223 49.5304C197.749 51.5715 193.707 52.4299 189.704 51.9769C189.828 50.9157 189.983 49.7874 190.187 48.6926C191.512 48.3715 192.614 48.1716 192.614 48.1716L201.223 49.5304Z" fill="#E2915A"/>
<path d="M204.289 45.8791C201.929 52.3785 193.316 50.719 189.648 49.6751C188.615 49.3836 187.976 49.139 187.976 49.139C186.842 48.6293 186.492 46.6456 186.591 44.1441C186.787 39.1961 188.74 32.2116 189.861 30.5286C191.547 27.9966 194.359 25.4216 202.715 29.0067C211.071 32.5918 207.316 37.5509 204.289 45.8791Z" fill="#FFB27D"/>
<path d="M210.742 42.5417C208.104 44.6935 202.439 48.6762 202.439 48.6762C203.055 47.7912 203.528 46.8146 203.841 45.7823C203.931 45.4641 203.966 45.1326 203.943 44.8026C203.902 43.7478 204.171 42.7042 204.717 41.8007C205.062 41.24 205.188 40.658 204.751 40.2461C204.037 39.5683 202.815 40.1911 202.011 40.7395C201.752 40.9176 201.448 41.0166 201.134 41.0246C200.82 41.0326 200.511 40.949 200.244 40.7843L200.234 40.7782C197.981 39.3664 200.468 36.8782 198.637 34.813C196.806 32.7478 188.88 32.4684 189.197 31.1697C186.49 29.6407 188.197 23.9966 188.246 23.6979C191.184 23.8497 194.127 23.5573 196.978 22.8305C200.913 21.8417 205.253 24.3707 206.625 25.4125C206.626 25.0793 206.551 24.7503 206.406 24.4502C206.746 24.793 206.953 25.2452 206.991 25.7264C207.051 25.7866 207.078 25.8283 207.059 25.8395C207.491 25.8314 207.917 25.9303 208.301 26.1271C208.301 26.1271 207.965 26.0251 207.807 26.2218C207.788 26.2436 207.765 26.2616 207.739 26.2748C213.007 29.9975 212.932 40.7517 210.742 42.5417Z" fill="#233862"/>
<path d="M191.833 44.9403C191.833 44.9403 191.41 45.7558 189.28 45.0799C189.28 45.0799 187.492 44.5102 187.789 43.5683C189.259 43.5163 190.698 44.0043 191.833 44.9403Z" fill="white"/>
<path d="M191.251 65.8972C191.251 65.8972 186.506 125.886 186.573 130.884C186.64 135.882 191.83 141.168 191.83 141.168C191.83 141.168 195.967 136.638 196.774 131.856C197.581 127.073 194.485 66.5149 194.485 66.5149L191.251 65.8972Z" fill="#2A4E96"/>
<path d="M212.338 62.0725C212.338 62.0725 219.998 63.9074 226.053 75.5454C232.108 87.1833 236.892 110.656 239.782 116.852C242.673 123.047 244.656 142.558 244.656 142.558L240.079 144.8C240.079 144.8 229.027 124.805 227.392 118.246C226.508 114.699 212.994 86.2975 212.994 86.2975L212.338 62.0725Z" fill="#AEC3FF"/>
<path d="M223.162 141.167H223.155C208.734 139.091 212.864 91.3352 213.997 91.1467C215.13 90.9581 219.276 99.6828 219.276 99.6828L219.672 101.619C220.773 112.692 222.378 125.41 224.815 138.826C224.98 139.71 224.362 140.492 223.162 141.167Z" fill="#9DB0F4"/>
</g>
<defs>
<clipPath id="clip0">
<rect width="270" height="316" fill="white"/>
</clipPath>
</defs>
</svg>
