<svg width="183" height="39" viewBox="0 0 183 39" fill="none" xmlns="http://www.w3.org/2000/svg">
<path d="M52.3704 7.71692C51.9485 7.9552 51.4798 8.07434 50.9642 8.07434C50.3645 8.07434 49.8792 7.88098 49.5081 7.49426C49.139 7.10754 48.9544 6.59583 48.9544 5.95911C48.9544 5.30872 49.1595 4.77551 49.5696 4.3595C49.9817 3.94153 50.5032 3.73254 51.1341 3.73254C51.5911 3.73254 51.9749 3.80676 52.2854 3.9552V4.50012C51.9456 4.28528 51.5433 4.17786 51.0784 4.17786C50.6077 4.17786 50.222 4.33997 49.9212 4.66418C49.6204 4.9884 49.47 5.40833 49.47 5.92395C49.47 6.4552 49.6097 6.87317 49.889 7.17786C50.1683 7.48059 50.5472 7.63196 51.0257 7.63196C51.3538 7.63196 51.638 7.56653 51.8782 7.43567V6.25793H50.9583V5.81262H52.3704V7.71692ZM54.8489 5.49036C54.7649 5.4259 54.6438 5.39368 54.4856 5.39368C54.2806 5.39368 54.1087 5.49036 53.97 5.68372C53.8333 5.87708 53.7649 6.14075 53.7649 6.47473V8.00403H53.2845V5.00403H53.7649V5.62219H53.7767C53.845 5.41125 53.9495 5.24719 54.0901 5.13C54.2308 5.01086 54.388 4.95129 54.5618 4.95129C54.6868 4.95129 54.7825 4.96497 54.8489 4.99231V5.49036ZM57.7962 8.00403H57.3157V7.52942H57.304C57.1048 7.8927 56.7962 8.07434 56.3782 8.07434C55.6634 8.07434 55.306 7.64856 55.306 6.797V5.00403H55.7835V6.72083C55.7835 7.35364 56.0257 7.67004 56.5101 7.67004C56.7444 7.67004 56.9368 7.58411 57.0872 7.41223C57.2395 7.2384 57.3157 7.01184 57.3157 6.73254V5.00403H57.7962V8.00403ZM59.261 7.57043H59.2493V9.38391H58.7688V5.00403H59.2493V5.53137H59.261C59.4974 5.13293 59.8431 4.93372 60.2981 4.93372C60.6849 4.93372 60.9866 5.06848 61.2034 5.33801C61.4202 5.60559 61.5286 5.96497 61.5286 6.41614C61.5286 6.91809 61.4065 7.32043 61.1624 7.62317C60.9183 7.92395 60.5843 8.07434 60.1604 8.07434C59.7718 8.07434 59.472 7.90637 59.261 7.57043ZM59.2493 6.36047V6.77942C59.2493 7.02747 59.3294 7.2384 59.4895 7.41223C59.6517 7.58411 59.8567 7.67004 60.1048 7.67004C60.3958 7.67004 60.6233 7.55872 60.7874 7.33606C60.9534 7.1134 61.0364 6.80383 61.0364 6.40735C61.0364 6.07336 60.9593 5.81165 60.805 5.62219C60.6507 5.43274 60.4417 5.33801 60.178 5.33801C59.8987 5.33801 59.6741 5.43567 59.5042 5.63098C59.3343 5.82434 59.2493 6.0675 59.2493 6.36047ZM63.5501 8.07434C63.1067 8.07434 62.7522 7.93469 62.4866 7.6554C62.2229 7.37415 62.0911 7.00208 62.0911 6.53918C62.0911 6.03528 62.2288 5.64172 62.5042 5.35852C62.7796 5.07532 63.1517 4.93372 63.6204 4.93372C64.0677 4.93372 64.4163 5.07141 64.6663 5.3468C64.9183 5.62219 65.0442 6.00403 65.0442 6.49231C65.0442 6.97083 64.9085 7.35461 64.637 7.64368C64.3675 7.93079 64.0052 8.07434 63.5501 8.07434ZM63.5853 5.33801C63.2767 5.33801 63.0325 5.44348 62.8528 5.65442C62.6731 5.8634 62.5833 6.15247 62.5833 6.52161C62.5833 6.87708 62.6741 7.15735 62.8558 7.36243C63.0374 7.5675 63.2806 7.67004 63.5853 7.67004C63.8958 7.67004 64.1341 7.56946 64.3001 7.36829C64.4681 7.16711 64.552 6.88098 64.552 6.50989C64.552 6.13489 64.4681 5.84583 64.3001 5.6427C64.1341 5.43958 63.8958 5.33801 63.5853 5.33801Z" fill="#314E9C"/>
<path d="M93.342 21.228V17.528H74.186C74.4192 16.6605 74.8497 15.8586 75.444 15.185C76.0706 14.432 76.9054 13.8806 77.844 13.6C78.2086 13.5004 78.585 13.4502 78.963 13.451H94.002C95.1942 13.6756 96.2765 14.2936 97.076 15.206C97.6863 15.9198 98.0969 16.7823 98.266 17.706V21.662C98.0147 22.4005 97.6052 23.0752 97.066 23.639C96.1907 24.527 95.0428 25.0957 93.806 25.254L98.267 33.274H93.346L88.813 25.246C87.276 25.265 81.058 25.27 79.485 25.254V33.235H74.776V24.61C74.8211 24.2257 74.9191 23.8495 75.067 23.492C75.316 22.8552 75.7412 22.3025 76.2929 21.8986C76.8445 21.4947 77.4998 21.2562 78.182 21.211" fill="url(#paint0_linear)"/>
<path d="M106.69 21.243H102.017V33.237H106.69V21.243Z" fill="url(#paint1_linear)"/>
<path d="M110.442 13.518V30.518C110.425 30.8798 110.484 31.2412 110.615 31.5789C110.746 31.9167 110.946 32.2233 111.202 32.4792C111.459 32.7351 111.766 32.9346 112.104 33.0649C112.442 33.1953 112.803 33.2536 113.165 33.236H130.194C130.259 32.488 130.141 31.7355 129.85 31.0434C129.558 30.3514 129.103 29.7406 128.523 29.264C127.818 28.7804 126.978 28.5329 126.123 28.557H115.132V17.562C114.934 16.7111 114.527 15.9228 113.949 15.268C113.034 14.2742 111.786 13.6513 110.442 13.518Z" fill="url(#paint2_linear)"/>
<path d="M102.838 18.035V18.057H102.014V17.265H102.067C102.271 17.2655 102.467 17.3468 102.611 17.4911C102.756 17.6353 102.837 17.8309 102.838 18.035Z" fill="url(#paint3_linear)"/>
<path d="M106.694 17.937V18.058H105.877V17.945C105.869 16.9902 105.486 16.0768 104.809 15.4029C104.133 14.7291 103.218 14.3489 102.263 14.345H102.013V13.553H102.293C102.87 13.5503 103.442 13.6616 103.977 13.8808C104.511 14.0999 104.996 14.4224 105.405 14.8299C105.814 15.2373 106.139 15.7215 106.36 16.2548C106.581 16.788 106.695 17.3597 106.694 17.937Z" fill="url(#paint4_linear)"/>
<path d="M102.835 18.035V18.056H102.017V17.267H102.066C102.167 17.2666 102.267 17.2862 102.361 17.3247C102.454 17.3631 102.539 17.4197 102.61 17.491C102.682 17.5624 102.738 17.6472 102.777 17.7406C102.816 17.834 102.835 17.934 102.835 18.035Z" fill="url(#paint5_linear)"/>
<path d="M102.835 18.035V18.056H102.017V17.267H102.066C102.167 17.2666 102.267 17.2862 102.361 17.3247C102.454 17.3631 102.539 17.4197 102.61 17.491C102.682 17.5624 102.738 17.6472 102.777 17.7406C102.816 17.834 102.835 17.934 102.835 18.035Z" fill="url(#paint6_linear)"/>
<path d="M102.838 18.035V18.057H102.014V17.265H102.067C102.271 17.2655 102.467 17.3468 102.611 17.4911C102.756 17.6353 102.837 17.8309 102.838 18.035Z" fill="url(#paint7_linear)"/>
<path d="M102.838 18.035V18.057H102.014V17.265H102.067C102.271 17.2655 102.467 17.3468 102.611 17.4911C102.756 17.6353 102.837 17.8309 102.838 18.035Z" fill="url(#paint8_linear)"/>
<path d="M104.124 17.997V18.057H103.299V18.02C103.299 17.7018 103.173 17.3965 102.948 17.1715C102.722 16.9464 102.417 16.82 102.099 16.82H102.016V16.028H102.152C102.674 16.0309 103.173 16.2392 103.542 16.6077C103.911 16.9763 104.12 17.4754 104.124 17.997Z" fill="url(#paint9_linear)"/>
<path d="M105.409 17.959V18.059H104.585V17.984C104.58 17.3489 104.326 16.7412 103.877 16.2921C103.428 15.8431 102.82 15.5887 102.185 15.584H102.019V14.791H102.238C103.077 14.7965 103.88 15.1319 104.473 15.7248C105.067 16.3176 105.403 17.1202 105.409 17.959Z" fill="url(#paint10_linear)"/>
<path d="M174.187 18.935C174.187 19.1195 174.132 19.2997 174.029 19.4529C173.926 19.6062 173.78 19.7256 173.61 19.7961C173.44 19.8666 173.252 19.885 173.071 19.8491C172.89 19.8132 172.724 19.7245 172.593 19.5942C172.463 19.4638 172.374 19.2978 172.337 19.1169C172.301 18.9361 172.319 18.7485 172.389 18.5779C172.459 18.4073 172.578 18.2612 172.731 18.1582C172.884 18.0552 173.065 17.9998 173.249 17.999C173.372 17.9979 173.495 18.0214 173.609 18.0681C173.723 18.1147 173.827 18.1836 173.914 18.2707C174.001 18.3578 174.07 18.4614 174.117 18.5754C174.164 18.6895 174.188 18.8117 174.187 18.935Z" fill="url(#paint11_linear)"/>
<path d="M172.813 28.297C172.687 28.2972 172.564 28.3348 172.459 28.405C172.354 28.4753 172.272 28.575 172.224 28.6916C172.176 28.8082 172.164 28.9364 172.188 29.0601C172.213 29.1838 172.274 29.2974 172.363 29.3865C172.452 29.4756 172.566 29.5363 172.69 29.5609C172.814 29.5854 172.942 29.5727 173.058 29.5244C173.175 29.476 173.274 29.3943 173.345 29.2894C173.415 29.1845 173.452 29.0612 173.452 28.935C173.452 28.8511 173.436 28.768 173.404 28.6905C173.372 28.613 173.324 28.5425 173.265 28.4832C173.206 28.424 173.135 28.377 173.058 28.345C172.98 28.3131 172.897 28.2968 172.813 28.297ZM172.813 28.297C172.687 28.2972 172.564 28.3348 172.459 28.405C172.354 28.4753 172.272 28.575 172.224 28.6916C172.176 28.8082 172.164 28.9364 172.188 29.0601C172.213 29.1838 172.274 29.2974 172.363 29.3865C172.452 29.4756 172.566 29.5363 172.69 29.5609C172.814 29.5854 172.942 29.5727 173.058 29.5244C173.175 29.476 173.274 29.3943 173.345 29.2894C173.415 29.1845 173.452 29.0612 173.452 28.935C173.452 28.8511 173.436 28.768 173.404 28.6905C173.372 28.613 173.324 28.5425 173.265 28.4832C173.206 28.424 173.135 28.377 173.058 28.345C172.98 28.3131 172.897 28.2968 172.813 28.297ZM172.813 28.297C172.687 28.2972 172.564 28.3348 172.459 28.405C172.354 28.4753 172.272 28.575 172.224 28.6916C172.176 28.8082 172.164 28.9364 172.188 29.0601C172.213 29.1838 172.274 29.2974 172.363 29.3865C172.452 29.4756 172.566 29.5363 172.69 29.5609C172.814 29.5854 172.942 29.5727 173.058 29.5244C173.175 29.476 173.274 29.3943 173.345 29.2894C173.415 29.1845 173.452 29.0612 173.452 28.935C173.452 28.8511 173.436 28.768 173.404 28.6905C173.372 28.613 173.324 28.5425 173.265 28.4832C173.206 28.424 173.135 28.377 173.058 28.345C172.98 28.3131 172.897 28.2968 172.813 28.297ZM178.453 30.005C178.343 30.0052 178.236 30.0379 178.145 30.0989C178.055 30.1599 177.984 30.2465 177.942 30.3477C177.9 30.449 177.889 30.5603 177.911 30.6677C177.932 30.7751 177.985 30.8737 178.063 30.9511C178.14 31.0285 178.239 31.0812 178.346 31.1024C178.454 31.1237 178.565 31.1127 178.666 31.0708C178.767 31.0288 178.854 30.9578 178.915 30.8667C178.976 30.7756 179.008 30.6685 179.008 30.559C179.007 30.4115 178.948 30.2702 178.844 30.1661C178.739 30.0621 178.598 30.0038 178.45 30.004L178.453 30.005ZM178.453 30.005C178.343 30.0052 178.236 30.0379 178.145 30.0989C178.055 30.1599 177.984 30.2465 177.942 30.3477C177.9 30.449 177.889 30.5603 177.911 30.6677C177.932 30.7751 177.985 30.8737 178.063 30.9511C178.14 31.0285 178.239 31.0812 178.346 31.1024C178.454 31.1237 178.565 31.1127 178.666 31.0708C178.767 31.0288 178.854 30.9578 178.915 30.8667C178.976 30.7756 179.008 30.6685 179.008 30.559C179.007 30.4115 178.948 30.2702 178.844 30.1661C178.739 30.0621 178.598 30.0038 178.45 30.004L178.453 30.005ZM172.813 28.297C172.687 28.2972 172.564 28.3348 172.459 28.405C172.354 28.4753 172.272 28.575 172.224 28.6916C172.176 28.8082 172.164 28.9364 172.188 29.0601C172.213 29.1838 172.274 29.2974 172.363 29.3865C172.452 29.4756 172.566 29.5363 172.69 29.5609C172.814 29.5854 172.942 29.5727 173.058 29.5244C173.175 29.476 173.274 29.3943 173.345 29.2894C173.415 29.1845 173.452 29.0612 173.452 28.935C173.452 28.8511 173.436 28.768 173.404 28.6905C173.372 28.613 173.324 28.5425 173.265 28.4832C173.206 28.424 173.135 28.377 173.058 28.345C172.98 28.3131 172.897 28.2968 172.813 28.297ZM181.859 33.237H182.489C179.548 26.613 176.609 19.9887 173.672 13.364H167.75C164.671 19.988 161.588 26.6124 158.499 33.237H163.204C166.304 26.582 166.161 26.893 168.563 21.737C169.217 20.348 169.863 18.952 170.517 17.563H170.836C172.083 20.4237 173.327 23.2817 174.568 26.137H169.903C169.28 27.4804 168.66 28.8233 168.041 30.166C168.429 30.166 173.458 30.166 173.846 30.158H176.407C176.871 31.182 177.327 32.214 177.791 33.239H181.227L176.993 23.928L177.51 23.693L181.859 33.237ZM178.347 29.637C178.382 29.6305 178.418 29.6278 178.454 29.629C178.671 29.6298 178.882 29.7065 179.048 29.8459C179.215 29.9853 179.328 30.1786 179.367 30.3923C179.407 30.6061 179.37 30.8269 179.264 31.0165C179.158 31.2061 178.988 31.3526 178.786 31.4308C178.583 31.5089 178.359 31.5136 178.153 31.4442C177.947 31.3748 177.772 31.2356 177.658 31.0507C177.543 30.8658 177.497 30.6468 177.528 30.4315C177.558 30.2163 177.662 30.0184 177.823 29.872L177.488 29.128H173.809C173.762 29.3768 173.623 29.5989 173.421 29.751C173.218 29.9032 172.967 29.9743 172.714 29.9505C172.462 29.9268 172.228 29.8098 172.058 29.6226C171.887 29.4353 171.793 29.1912 171.793 28.938C171.793 28.6848 171.887 28.4407 172.058 28.2535C172.228 28.0662 172.462 27.9493 172.714 27.9255C172.967 27.9017 173.218 27.9729 173.421 28.125C173.623 28.2771 173.762 28.4993 173.809 28.748H177.309L173.531 20.432C173.421 20.4565 173.309 20.4692 173.196 20.47C172.898 20.4686 172.607 20.379 172.361 20.2124C172.114 20.0458 171.922 19.8098 171.809 19.5341C171.696 19.2585 171.668 18.9556 171.727 18.6637C171.787 18.3719 171.931 18.1042 172.143 17.8946C172.354 17.6849 172.623 17.5426 172.915 17.4857C173.208 17.4289 173.51 17.46 173.785 17.5751C174.06 17.6902 174.294 17.8842 174.459 18.1324C174.623 18.3807 174.71 18.6722 174.709 18.97C174.71 19.2141 174.651 19.4546 174.537 19.6704C174.423 19.8861 174.257 20.0705 174.055 20.207L178.347 29.637ZM178.454 31.117C178.564 31.1168 178.671 31.0842 178.762 31.0232C178.852 30.9622 178.923 30.8756 178.965 30.7744C179.007 30.6731 179.018 30.5617 178.996 30.4543C178.975 30.3469 178.922 30.2483 178.844 30.1709C178.767 30.0935 178.668 30.0409 178.561 30.0196C178.453 29.9983 178.342 30.0093 178.241 30.0513C178.14 30.0933 178.053 30.1643 177.992 30.2553C177.931 30.3464 177.899 30.4535 177.899 30.563C177.901 30.7083 177.96 30.847 178.063 30.9496C178.166 31.0522 178.305 31.1105 178.45 31.112L178.454 31.117ZM172.814 28.302C172.688 28.3022 172.565 28.3398 172.46 28.41C172.355 28.4803 172.273 28.58 172.225 28.6966C172.177 28.8132 172.165 28.9414 172.189 29.0651C172.214 29.1888 172.275 29.3024 172.364 29.3915C172.453 29.4806 172.567 29.5413 172.691 29.5658C172.815 29.5904 172.943 29.5777 173.059 29.5294C173.176 29.481 173.275 29.3993 173.346 29.2944C173.416 29.1895 173.453 29.0662 173.453 28.94C173.454 28.8556 173.438 28.7719 173.406 28.6937C173.374 28.6156 173.327 28.5445 173.267 28.4846C173.208 28.4248 173.137 28.3774 173.059 28.3452C172.981 28.313 172.897 28.2966 172.813 28.297L172.814 28.302ZM172.814 28.302C172.688 28.3022 172.565 28.3398 172.46 28.41C172.355 28.4803 172.273 28.58 172.225 28.6966C172.177 28.8132 172.165 28.9414 172.189 29.0651C172.214 29.1888 172.275 29.3024 172.364 29.3915C172.453 29.4806 172.567 29.5413 172.691 29.5658C172.815 29.5904 172.943 29.5777 173.059 29.5294C173.176 29.481 173.275 29.3993 173.346 29.2944C173.416 29.1895 173.453 29.0662 173.453 28.94C173.454 28.8556 173.438 28.7719 173.406 28.6937C173.374 28.6156 173.327 28.5445 173.267 28.4846C173.208 28.4248 173.137 28.3774 173.059 28.3452C172.981 28.313 172.897 28.2966 172.813 28.297L172.814 28.302ZM172.814 28.302C172.688 28.3022 172.565 28.3398 172.46 28.41C172.355 28.4803 172.273 28.58 172.225 28.6966C172.177 28.8132 172.165 28.9414 172.189 29.0651C172.214 29.1888 172.275 29.3024 172.364 29.3915C172.453 29.4806 172.567 29.5413 172.691 29.5658C172.815 29.5904 172.943 29.5777 173.059 29.5294C173.176 29.481 173.275 29.3993 173.346 29.2944C173.416 29.1895 173.453 29.0662 173.453 28.94C173.454 28.8556 173.438 28.7719 173.406 28.6937C173.374 28.6156 173.327 28.5445 173.267 28.4846C173.208 28.4248 173.137 28.3774 173.059 28.3452C172.981 28.313 172.897 28.2966 172.813 28.297L172.814 28.302Z" fill="url(#paint12_linear)"/>
<path d="M62.433 26.425V33.187C61.9856 33.2456 61.5324 33.2456 61.085 33.187V27.382C61.3642 27.3258 61.6285 27.2116 61.8607 27.0468C62.0929 26.8819 62.2879 26.6701 62.433 26.425Z" fill="url(#paint13_linear)"/>
<path d="M60.003 15.673C60.004 15.7709 59.9759 15.8669 59.9223 15.9488C59.8688 16.0308 59.7921 16.095 59.7021 16.1334C59.612 16.1717 59.5126 16.1826 59.4164 16.1644C59.3202 16.1463 59.2315 16.1001 59.1616 16.0315C59.0916 15.963 59.0436 15.8753 59.0235 15.7795C59.0035 15.6836 59.0123 15.584 59.0488 15.4932C59.0854 15.4024 59.148 15.3244 59.2289 15.2692C59.3097 15.214 59.4051 15.184 59.503 15.183C59.5682 15.1817 59.633 15.1934 59.6936 15.2174C59.7542 15.2414 59.8094 15.2773 59.856 15.3229C59.9025 15.3686 59.9395 15.4231 59.9648 15.4832C59.99 15.5433 60.003 15.6078 60.003 15.673Z" fill="url(#paint14_linear)"/>
<path d="M61.936 25.4221C61.9366 25.6664 61.8647 25.9055 61.7293 26.109C61.594 26.3125 61.4013 26.4713 61.1757 26.5652C60.9501 26.6591 60.7017 26.684 60.4619 26.6367C60.2221 26.5894 60.0018 26.472 59.8288 26.2994C59.6558 26.1268 59.5379 25.9067 59.49 25.6671C59.4421 25.4274 59.4663 25.179 59.5597 24.9531C59.6531 24.7273 59.8114 24.5342 60.0146 24.3984C60.2177 24.2626 60.4566 24.1901 60.701 24.1901C60.863 24.1898 61.0235 24.2215 61.1732 24.2832C61.323 24.345 61.4591 24.4357 61.5738 24.5501C61.6885 24.6646 61.7795 24.8004 61.8417 24.95C61.9038 25.0997 61.9359 25.2601 61.936 25.4221Z" fill="url(#paint15_linear)"/>
<path d="M66.69 16.314C66.6879 16.4916 66.6158 16.6611 66.4894 16.7858C66.363 16.9105 66.1926 16.9803 66.015 16.98C65.8373 16.98 65.6669 16.9094 65.5412 16.7838C65.4156 16.6581 65.345 16.4877 65.345 16.31C65.345 16.1323 65.4156 15.9619 65.5412 15.8363C65.6669 15.7106 65.8373 15.64 66.015 15.64C66.1938 15.64 66.3654 15.711 66.492 15.8374C66.6185 15.9637 66.6898 16.1352 66.69 16.314Z" fill="url(#paint16_linear)"/>
<path d="M51.32 16.5991C51.2025 16.5981 51.088 16.5623 50.9908 16.4964C50.8936 16.4304 50.8181 16.3371 50.7739 16.2283C50.7296 16.1195 50.7185 16 50.742 15.8849C50.7656 15.7699 50.8226 15.6643 50.906 15.5816C50.9894 15.4989 51.0955 15.4427 51.2107 15.4201C51.326 15.3976 51.4454 15.4096 51.5538 15.4548C51.6623 15.5 51.7549 15.5763 51.82 15.674C51.8852 15.7717 51.92 15.8866 51.92 16.0041C51.9187 16.1623 51.8549 16.3136 51.7425 16.4251C51.6301 16.5365 51.4783 16.5991 51.32 16.5991Z" fill="url(#paint17_linear)"/>
<path d="M60.985 14.219V14.792H72.585C72.4554 15.2312 72.2525 15.6454 71.985 16.017H67.019C66.9464 15.7754 66.7889 15.5681 66.5755 15.4335C66.3621 15.2988 66.1073 15.2458 65.8579 15.2842C65.6085 15.3227 65.3815 15.45 65.2186 15.6426C65.0556 15.8353 64.9678 16.0803 64.9713 16.3326C64.9749 16.5849 65.0695 16.8274 65.2377 17.0155C65.4059 17.2035 65.6365 17.3244 65.8868 17.3559C66.1371 17.3873 66.3904 17.3273 66.5999 17.1867C66.8095 17.0462 66.9611 16.8346 67.027 16.591H71.489C71.436 16.644 71.375 16.698 71.313 16.752C70.5563 17.3725 69.6075 17.7108 68.629 17.709C66.567 17.693 64.496 17.686 62.429 17.67V24.419C62.2528 24.1156 62.0001 23.8636 61.6963 23.6882C61.3924 23.5128 61.0479 23.42 60.697 23.419C60.417 23.4227 60.1405 23.4826 59.884 23.595V16.446C60.0613 16.3594 60.2039 16.2152 60.2887 16.037C60.3736 15.8589 60.3955 15.6572 60.351 15.465C60.3065 15.2727 60.1982 15.1012 60.0438 14.9784C59.8893 14.8556 59.6978 14.7888 59.5005 14.7888C59.3032 14.7888 59.1117 14.8556 58.9572 14.9784C58.8028 15.1012 58.6945 15.2727 58.65 15.465C58.6055 15.6572 58.6274 15.8589 58.7122 16.037C58.7971 16.2152 58.9397 16.3594 59.117 16.446V24.207C58.8454 24.5512 58.6972 24.9766 58.696 25.415C58.6967 25.8785 58.8583 26.3273 59.1532 26.6848C59.4482 27.0423 59.8581 27.2863 60.313 27.375V33.021C59.9688 32.9561 59.6372 32.8362 59.331 32.666V28.119H58.691V32.201C58.0932 31.5965 57.7375 30.794 57.691 29.945V17.669C54.241 17.685 50.791 17.692 47.347 17.708C47.5074 17.2263 47.726 16.7659 47.998 16.337H50.317C50.3959 16.5735 50.5564 16.7741 50.7698 16.9031C50.9831 17.0321 51.2353 17.0809 51.4814 17.0409C51.7275 17.0009 51.9512 16.8747 52.1128 16.6848C52.2743 16.495 52.363 16.2538 52.363 16.0045C52.363 15.7552 52.2743 15.5141 52.1128 15.3242C51.9512 15.1343 51.7275 15.0081 51.4814 14.9681C51.2353 14.9282 50.9831 14.977 50.7698 15.106C50.5564 15.2349 50.3959 15.4356 50.317 15.672H48.483C48.8821 15.1949 49.3547 14.7844 49.883 14.456C50.7915 13.8939 51.833 13.5833 52.901 13.556H72.782C72.7746 13.7764 72.7543 13.9961 72.721 14.214L60.985 14.219Z" fill="url(#paint18_linear)"/>
<path d="M133.393 13.471V33.237L138.093 33.217V25.264H151.17C151.17 27.9213 151.17 30.579 151.17 33.237H155.87V21.242H138.123V13.474L133.393 13.471Z" fill="url(#paint19_linear)"/>
<path d="M155.781 13.477H151.212V18.046H155.781V13.477Z" fill="url(#paint20_linear)"/>
<path d="M21.69 25.312V33.184C21.1689 33.252 20.6411 33.252 20.12 33.184V26.427C20.4452 26.3614 20.753 26.2283 21.0234 26.0362C21.2939 25.8441 21.521 25.5974 21.69 25.312Z" fill="#7657CC"/>
<path d="M18.861 12.791C18.8622 12.905 18.8295 13.0168 18.7671 13.1122C18.7047 13.2076 18.6154 13.2824 18.5105 13.327C18.4056 13.3717 18.2898 13.3842 18.1778 13.363C18.0658 13.3417 17.9626 13.2877 17.8813 13.2078C17.8 13.1279 17.7442 13.0257 17.7211 12.914C17.6979 12.8024 17.7084 12.6864 17.7512 12.5808C17.794 12.4751 17.8672 12.3845 17.9615 12.3205C18.0558 12.2564 18.167 12.2218 18.281 12.221C18.3567 12.2198 18.4318 12.2337 18.502 12.2618C18.5723 12.2899 18.6363 12.3317 18.6902 12.3847C18.7442 12.4377 18.7871 12.501 18.8164 12.5707C18.8457 12.6405 18.8609 12.7154 18.861 12.791Z" fill="#7657CC"/>
<path d="M21.111 24.144C21.1114 24.4283 21.0275 24.7064 20.8698 24.9429C20.7121 25.1795 20.4878 25.364 20.2253 25.4731C19.9628 25.5822 19.6738 25.6109 19.3949 25.5557C19.116 25.5004 18.8598 25.3637 18.6586 25.1628C18.4574 24.962 18.3204 24.7059 18.2648 24.4271C18.2092 24.1483 18.2375 23.8593 18.3462 23.5966C18.4549 23.3339 18.6391 23.1093 18.8754 22.9514C19.1118 22.7934 19.3897 22.709 19.674 22.709C19.8626 22.7088 20.0494 22.7457 20.2238 22.8177C20.3981 22.8897 20.5565 22.9953 20.69 23.1286C20.8235 23.2619 20.9293 23.4202 21.0016 23.5944C21.0738 23.7687 21.111 23.9554 21.111 24.144Z" fill="#7657CC"/>
<path d="M26.646 13.539C26.6454 13.6932 26.5992 13.8437 26.5132 13.9716C26.4272 14.0996 26.3053 14.1992 26.1627 14.258C26.0202 14.3168 25.8635 14.3321 25.7123 14.3019C25.5611 14.2718 25.4222 14.1975 25.3131 14.0886C25.204 13.9796 25.1296 13.8409 25.0993 13.6897C25.069 13.5385 25.084 13.3818 25.1426 13.2392C25.2012 13.0966 25.3007 12.9745 25.4285 12.8883C25.5564 12.8022 25.7068 12.7558 25.861 12.755C25.9641 12.7549 26.0661 12.7751 26.1613 12.8144C26.2566 12.8537 26.3431 12.9114 26.416 12.9843C26.4889 13.0571 26.5468 13.1436 26.5862 13.2387C26.6257 13.3339 26.646 13.436 26.646 13.539Z" fill="#7657CC"/>
<path d="M8.751 13.871C8.61422 13.8708 8.48057 13.8301 8.36692 13.754C8.25328 13.6779 8.16473 13.5698 8.11248 13.4434C8.06023 13.317 8.04661 13.1779 8.07334 13.0438C8.10008 12.9096 8.16596 12.7864 8.26267 12.6897C8.35939 12.593 8.48261 12.5271 8.61675 12.5003C8.7509 12.4736 8.88995 12.4872 9.01635 12.5395C9.14276 12.5917 9.25085 12.6803 9.32696 12.7939C9.40307 12.9076 9.4438 13.0412 9.44399 13.178C9.44373 13.3617 9.37064 13.5378 9.24073 13.6677C9.11083 13.7976 8.93472 13.8707 8.751 13.871Z" fill="#7657CC"/>
<path d="M20.004 11.102V11.768H33.504C33.3522 12.2776 33.1155 12.7581 32.804 13.189H27.022C26.9395 12.9067 26.7578 12.6637 26.5103 12.5048C26.2629 12.3458 25.9663 12.2816 25.6753 12.324C25.3842 12.3663 25.1183 12.5124 24.9264 12.7353C24.7345 12.9582 24.6296 13.2429 24.631 13.537C24.6289 13.8339 24.735 14.1213 24.9295 14.3456C25.124 14.5698 25.3935 14.7156 25.6876 14.7555C25.9818 14.7955 26.2804 14.7269 26.5276 14.5627C26.7749 14.3984 26.9538 14.1496 27.031 13.863H32.231L32.024 14.048C31.143 14.7694 30.0387 15.1621 28.9 15.159C26.5 15.144 24.088 15.137 21.689 15.115V22.978C21.4823 22.6252 21.1872 22.3324 20.8328 22.1284C20.4784 21.9245 20.0769 21.8165 19.668 21.815C19.3438 21.8197 19.0239 21.8905 18.728 22.023V13.701C18.9372 13.6022 19.1062 13.4347 19.2067 13.2263C19.3073 13.018 19.3334 12.7815 19.2806 12.5562C19.2279 12.331 19.0994 12.1306 18.9168 11.9886C18.7341 11.8467 18.5083 11.7716 18.277 11.776C18.0082 11.7766 17.7506 11.8836 17.5606 12.0736C17.3705 12.2637 17.2635 12.5212 17.263 12.79C17.2648 12.9795 17.319 13.1648 17.4196 13.3254C17.5202 13.486 17.6633 13.6157 17.833 13.7V22.733C17.516 23.1362 17.3438 23.6342 17.344 24.147C17.346 24.6857 17.5343 25.207 17.877 25.6226C18.2197 26.0382 18.6956 26.3224 19.224 26.427V33.002C18.8239 32.9267 18.4389 32.7865 18.084 32.587V27.287H17.336V32.04C16.6396 31.336 16.2257 30.4009 16.173 29.412V15.112C12.153 15.134 8.133 15.142 4.127 15.156C4.134 15.141 4.134 15.126 4.142 15.112C4.33123 14.5708 4.57939 14.052 4.882 13.565H7.582C7.67422 13.8408 7.86153 14.0748 8.11043 14.2251C8.35932 14.3754 8.65357 14.4323 8.94057 14.3856C9.22756 14.3389 9.48859 14.1916 9.67696 13.9701C9.86533 13.7486 9.96877 13.4673 9.96877 13.1765C9.96877 12.8857 9.86533 12.6044 9.67696 12.3829C9.48859 12.1614 9.22756 12.0142 8.94057 11.9674C8.65357 11.9207 8.35932 11.9776 8.11043 12.128C7.86153 12.2783 7.67422 12.5123 7.582 12.788H5.45C5.91369 12.2324 6.46372 11.755 7.07901 11.374C8.13496 10.7192 9.34684 10.3588 10.589 10.33H33.74C33.725 10.43 33.725 10.715 33.666 11.1L20.004 11.102Z" fill="#7657CC"/>
<path d="M18.82 0C14.4326 0.00452704 10.1776 1.5038 6.7565 4.2507C3.33538 6.9976 0.952274 10.8282 0 15.111H1.828C2.61151 11.9241 4.27536 9.02172 6.62958 6.73526C8.9838 4.4488 11.9335 2.87042 15.1419 2.1803C18.3504 1.49018 21.6882 1.71614 24.7743 2.8324C27.8605 3.94865 30.5705 5.91024 32.5951 8.49313C34.6196 11.076 35.8771 14.1761 36.224 17.4396C36.5708 20.703 35.993 23.9982 34.5565 26.9489C33.12 29.8997 30.8827 32.387 28.1002 34.127C25.3176 35.8669 22.1018 36.7894 18.82 36.789C17.9352 36.7899 17.0516 36.723 16.177 36.589V38.381C17.0524 38.5063 17.9357 38.5681 18.82 38.566C23.9342 38.566 28.8389 36.5344 32.4551 32.9182C36.0714 29.3019 38.103 24.3972 38.103 19.283C38.103 14.1688 36.0714 9.26412 32.4551 5.64786C28.8389 2.03159 23.9342 0 18.82 0Z" fill="#7657CC"/>
<defs>
<linearGradient id="paint0_linear" x1="75.077" y1="23.3625" x2="102.503" y2="23.8305" gradientUnits="userSpaceOnUse">
<stop stop-color="#55489A"/>
<stop offset="0.372" stop-color="#6849C6"/>
<stop offset="0.618" stop-color="#6949C7"/>
<stop offset="1" stop-color="#392172" stop-opacity="0.941"/>
</linearGradient>
<linearGradient id="paint1_linear" x1="101.718" y1="27.24" x2="109.017" y2="27.24" gradientUnits="userSpaceOnUse">
<stop stop-color="#55489A"/>
<stop offset="0.367" stop-color="#6849C6"/>
<stop offset="0.477" stop-color="#6849C6"/>
<stop offset="0.594" stop-color="#6949C7"/>
<stop offset="1" stop-color="#392172" stop-opacity="0.941"/>
</linearGradient>
<linearGradient id="paint2_linear" x1="111.171" y1="23.3785" x2="133.375" y2="23.3785" gradientUnits="userSpaceOnUse">
<stop stop-color="#55489A"/>
<stop offset="0.409" stop-color="#6849C6"/>
<stop offset="0.653" stop-color="#6949C7"/>
<stop offset="1" stop-color="#392172" stop-opacity="0.941"/>
</linearGradient>
<linearGradient id="paint3_linear" x1="102.044" y1="17.661" x2="102.917" y2="17.661" gradientUnits="userSpaceOnUse">
<stop stop-color="#55489A"/>
<stop offset="0.291" stop-color="#6849C6"/>
<stop offset="0.653" stop-color="#6949C7"/>
<stop offset="1" stop-color="#392172" stop-opacity="0.941"/>
</linearGradient>
<linearGradient id="paint4_linear" x1="102.186" y1="15.8055" x2="107.143" y2="15.8055" gradientUnits="userSpaceOnUse">
<stop stop-color="#55489A"/>
<stop offset="0.291" stop-color="#6849C6"/>
<stop offset="0.653" stop-color="#6949C7"/>
<stop offset="1" stop-color="#392172" stop-opacity="0.941"/>
</linearGradient>
<linearGradient id="paint5_linear" x1="102.047" y1="17.6615" x2="102.914" y2="17.6615" gradientUnits="userSpaceOnUse">
<stop stop-color="#55489A"/>
<stop offset="0.291" stop-color="#6849C6"/>
<stop offset="0.653" stop-color="#6949C7"/>
<stop offset="1" stop-color="#392172" stop-opacity="0.941"/>
</linearGradient>
<linearGradient id="paint6_linear" x1="102.047" y1="17.6615" x2="102.914" y2="17.6615" gradientUnits="userSpaceOnUse">
<stop stop-color="#55489A"/>
<stop offset="0.291" stop-color="#6849C6"/>
<stop offset="0.653" stop-color="#6949C7"/>
<stop offset="1" stop-color="#392172" stop-opacity="0.941"/>
</linearGradient>
<linearGradient id="paint7_linear" x1="102.044" y1="17.661" x2="102.917" y2="17.661" gradientUnits="userSpaceOnUse">
<stop stop-color="#55489A"/>
<stop offset="0.291" stop-color="#6849C6"/>
<stop offset="0.653" stop-color="#6949C7"/>
<stop offset="1" stop-color="#392172" stop-opacity="0.941"/>
</linearGradient>
<linearGradient id="paint8_linear" x1="102.044" y1="17.661" x2="102.917" y2="17.661" gradientUnits="userSpaceOnUse">
<stop stop-color="#55489A"/>
<stop offset="0.291" stop-color="#6849C6"/>
<stop offset="0.653" stop-color="#6949C7"/>
<stop offset="1" stop-color="#392172" stop-opacity="0.941"/>
</linearGradient>
<linearGradient id="paint9_linear" x1="102.094" y1="17.0425" x2="104.326" y2="17.0425" gradientUnits="userSpaceOnUse">
<stop stop-color="#55489A"/>
<stop offset="0.291" stop-color="#6849C6"/>
<stop offset="0.653" stop-color="#6949C7"/>
<stop offset="1" stop-color="#392172" stop-opacity="0.941"/>
</linearGradient>
<linearGradient id="paint10_linear" x1="102.144" y1="16.425" x2="105.734" y2="16.425" gradientUnits="userSpaceOnUse">
<stop stop-color="#55489A"/>
<stop offset="0.291" stop-color="#6849C6"/>
<stop offset="0.653" stop-color="#6949C7"/>
<stop offset="1" stop-color="#392172" stop-opacity="0.941"/>
</linearGradient>
<linearGradient id="paint11_linear" x1="172.388" y1="18.933" x2="174.366" y2="18.933" gradientUnits="userSpaceOnUse">
<stop stop-color="#55489A"/>
<stop offset="0.291" stop-color="#6849C6"/>
<stop offset="0.653" stop-color="#6949C7"/>
<stop offset="1" stop-color="#392172" stop-opacity="0.941"/>
</linearGradient>
<linearGradient id="paint12_linear" x1="159.387" y1="23.3015" x2="184.792" y2="23.3015" gradientUnits="userSpaceOnUse">
<stop stop-color="#55489A"/>
<stop offset="0.36" stop-color="#6849C6"/>
<stop offset="0.59" stop-color="#6949C7"/>
<stop offset="1" stop-color="#392172" stop-opacity="0.941"/>
</linearGradient>
<linearGradient id="paint13_linear" x1="61.1349" y1="29.828" x2="62.5624" y2="29.828" gradientUnits="userSpaceOnUse">
<stop stop-color="#55489A"/>
<stop offset="0.431" stop-color="#6849C6"/>
<stop offset="0.561" stop-color="#6949C7"/>
<stop offset="1" stop-color="#392172" stop-opacity="0.941"/>
</linearGradient>
<linearGradient id="paint14_linear" x1="59.0497" y1="15.678" x2="60.0981" y2="15.678" gradientUnits="userSpaceOnUse">
<stop stop-color="#55489A"/>
<stop offset="0.431" stop-color="#6849C6"/>
<stop offset="0.561" stop-color="#6949C7"/>
<stop offset="1" stop-color="#392172" stop-opacity="0.941"/>
</linearGradient>
<linearGradient id="paint15_linear" x1="59.5574" y1="25.4251" x2="62.1731" y2="25.4251" gradientUnits="userSpaceOnUse">
<stop stop-color="#55489A"/>
<stop offset="0.431" stop-color="#6849C6"/>
<stop offset="0.561" stop-color="#6949C7"/>
<stop offset="1" stop-color="#392172" stop-opacity="0.941"/>
</linearGradient>
<linearGradient id="paint16_linear" x1="65.3948" y1="16.31" x2="66.8191" y2="16.31" gradientUnits="userSpaceOnUse">
<stop stop-color="#55489A"/>
<stop offset="0.431" stop-color="#6849C6"/>
<stop offset="0.561" stop-color="#6949C7"/>
<stop offset="1" stop-color="#392172" stop-opacity="0.941"/>
</linearGradient>
<linearGradient id="paint17_linear" x1="50.774" y1="16.0041" x2="52.0342" y2="16.0041" gradientUnits="userSpaceOnUse">
<stop stop-color="#55489A"/>
<stop offset="0.431" stop-color="#6849C6"/>
<stop offset="0.561" stop-color="#6949C7"/>
<stop offset="1" stop-color="#392172" stop-opacity="0.941"/>
</linearGradient>
<linearGradient id="paint18_linear" x1="48.2881" y1="23.2885" x2="75.2238" y2="23.2885" gradientUnits="userSpaceOnUse">
<stop stop-color="#55489A"/>
<stop offset="0.431" stop-color="#6849C6"/>
<stop offset="0.561" stop-color="#6949C7"/>
<stop offset="1" stop-color="#392172" stop-opacity="0.941"/>
</linearGradient>
<linearGradient id="paint19_linear" x1="134.225" y1="23.354" x2="158.028" y2="23.354" gradientUnits="userSpaceOnUse">
<stop stop-color="#55489A"/>
<stop offset="0.425" stop-color="#6849C6"/>
<stop offset="0.628" stop-color="#6949C7"/>
<stop offset="1" stop-color="#392172" stop-opacity="0.941"/>
</linearGradient>
<linearGradient id="paint20_linear" x1="134.617" y1="15.6244" x2="156.22" y2="15.7615" gradientUnits="userSpaceOnUse">
<stop stop-color="#55489A"/>
<stop offset="0.425" stop-color="#6849C6"/>
<stop offset="0.628" stop-color="#6949C7"/>
<stop offset="1" stop-color="#392172" stop-opacity="0.941"/>
</linearGradient>
</defs>
</svg>
